<svg xmlns="http://www.w3.org/2000/svg" width="205" height="48" fill="none"><g clip-path="url(#a)"><path fill="#C9DAF5" d="M38.626 4.75c.486-.486.162-1.35-.54-1.35h-4.692c-1.511 0-2.968.594-3.993 1.673l-8.577 8.524 4.477 4.477L38.626 4.75Z"/><path fill="#66768F" d="m16.292 18.128 2.751 2.752a2.41 2.41 0 0 0 3.453 0l2.266-2.266.485-.486-4.477-4.477-2.806-2.806a5.642 5.642 0 0 0-3.938-1.618H7.391l8.901 8.901Z"/><path fill="#C9DAF5" d="M2.967 43.645c-.485.486-.162 1.349.54 1.349h4.747a5.642 5.642 0 0 0 3.938-1.618l8.578-8.578-4.478-4.478L2.967 43.645Z"/><path fill="#66768F" d="M22.496 27.515a2.41 2.41 0 0 0-3.453 0l-2.265 2.266-.486.486 4.478 4.477 2.805 2.805a5.717 5.717 0 0 0 4.046 1.673h6.582L25.3 30.32l-2.805-2.805Z"/><path fill="#C9DAF5" d="M10.196 24.224 7.391 27.03l7.283-7.283L1.349 6.367C.863 5.883 0 6.207 0 6.908v4.694c0 1.51.593 2.913 1.672 3.992l8.524 8.631Z"/><path fill="#66768F" d="M5.772 30.968v6.635l8.956-8.955 2.75-2.805a2.41 2.41 0 0 0 0-3.453l-2.75-2.751-7.337 7.39a5.642 5.642 0 0 0-1.619 3.939Z"/><path fill="#C9DAF5" d="m26.974 28.648 13.325 13.379a.752.752 0 0 0 1.294-.54V36.74c0-1.51-.593-2.913-1.618-3.938l-8.524-8.578-4.477 4.424Z"/><path fill="#66768F" d="M35.875 17.48v-6.689l-8.901 8.902-2.698 2.75a2.51 2.51 0 0 0 0 3.453l2.752 2.752 7.282-7.283a5.702 5.702 0 0 0 1.565-3.884Z"/></g><path fill="#C9DAF5" d="M50.026 35.697 60.982 11.37h8.404l10.956 24.328h-5.92l-2.314-5.138H58.26l-2.314 5.138h-5.92Zm10.207-9.56h9.902l-4.73-10.515h-.442l-4.73 10.514Zm25.425 17.216V39.44h10.276c1.361 0 2.041-.692 2.041-2.075v-1.668H90.49c-3.04 0-5.41-.748-7.111-2.245-1.702-1.497-2.552-3.664-2.552-6.5 0-2.857.85-5.035 2.552-6.532 1.7-1.497 4.071-2.246 7.11-2.246h12.42v19.803c0 1.61-.465 2.904-1.395 3.879-.93.998-2.382 1.497-4.355 1.497h-11.5Zm4.832-11.569h7.486v-9.697H90.49c-1.474 0-2.609.408-3.403 1.225-.77.794-1.157 2.008-1.157 3.64 0 1.611.386 2.825 1.157 3.641.794.794 1.928 1.191 3.403 1.191Zm25.132 4.083c-3.039 0-5.41-.748-7.111-2.245-1.701-1.52-2.552-3.743-2.552-6.67 0-2.948.851-5.171 2.552-6.668 1.701-1.52 4.072-2.28 7.111-2.28h6.295c3.039 0 5.41.76 7.111 2.28 1.701 1.497 2.552 3.72 2.552 6.669 0 2.926-.851 5.149-2.552 6.669-1.701 1.497-4.072 2.245-7.111 2.245h-6.295Zm0-3.912h6.295c1.474 0 2.597-.409 3.368-1.225.794-.817 1.191-2.076 1.191-3.777 0-1.724-.397-2.994-1.191-3.811-.771-.817-1.894-1.225-3.368-1.225h-6.295c-1.474 0-2.608.408-3.402 1.225-.772.817-1.157 2.087-1.157 3.81 0 1.702.385 2.961 1.157 3.778.794.816 1.928 1.224 3.402 1.224Zm19.007 3.742V18.174h15.278c1.996 0 3.448.5 4.355 1.497.93.976 1.395 2.269 1.395 3.88v12.146h-4.934V24.13c0-1.361-.68-2.042-2.041-2.042h-9.119v13.61h-4.934Z"/><defs><clipPath id="a"><path fill="#fff" d="M0 3.4h41.593v41.594H0z"/></clipPath></defs></svg>