<svg xmlns="http://www.w3.org/2000/svg" width="205" height="53" fill="none"><g clip-path="url(#a)"><path fill="#C9DAF5" d="M14.728 8.967C13.27 15.333 8.254 20.296 1.942 21.753.81 22.023 0 22.992 0 24.126v4.748a2.41 2.41 0 0 0 2.86 2.373c3.83-.701 7.336-2.212 10.411-4.316 2.59-1.78 4.801-4.046 6.636-6.635a26.407 26.407 0 0 0 4.585-12.3c.054-.54-.324-.971-.863-.971H17.1c-1.133 0-2.104.81-2.373 1.942Z"/><path fill="#66768F" d="M19.907 32.704c-1.78-2.59-4.046-4.802-6.636-6.636C10.196 23.91 6.69 22.4 2.86 21.752A2.41 2.41 0 0 0 0 24.127v4.748c0 1.133.81 2.104 1.942 2.373 6.366 1.457 11.383 6.474 12.786 12.786.27 1.133 1.24 1.942 2.373 1.942h6.528a.881.881 0 0 0 .863-.971 26.407 26.407 0 0 0-4.585-12.3Z"/><path fill="#C9DAF5" d="M27.028 45.004c-.054.485.323.97.863.97h6.527c1.133 0 2.104-.808 2.374-1.941 1.457-6.366 6.474-11.33 12.786-12.786 1.133-.27 1.942-1.24 1.942-2.373v-4.748a2.41 2.41 0 0 0-2.86-2.373c-3.83.7-7.336 2.211-10.411 4.315-2.59 1.78-4.802 4.046-6.636 6.636a26.407 26.407 0 0 0-4.585 12.3Z"/><path fill="#66768F" d="M34.418 7.025h-6.527c-.54 0-.917.431-.863.97a26.407 26.407 0 0 0 4.585 12.301c1.78 2.59 4.046 4.801 6.636 6.636 3.075 2.157 6.581 3.668 10.411 4.315a2.41 2.41 0 0 0 2.86-2.373v-4.748c0-1.133-.81-2.104-1.942-2.373-6.366-1.457-11.33-6.474-12.786-12.786-.27-1.133-1.24-1.942-2.374-1.942Z"/></g><path fill="#C9DAF5" d="M77.897 33.84c.48 0 .835.19 1.062.57.253.354.38.746.38 1.176 0 .53-.089.91-.266 1.138-.152.202-.455.417-.91.645-1.063.506-2.378.91-3.946 1.214-1.568.303-3.25.455-5.045.455-2.251 0-3.908-.38-4.97-1.138-1.037-.759-1.682-1.67-1.935-2.732-.227-1.087-.341-2.503-.341-4.248 0-1.872.076-3.706.228-5.501.151-1.821.417-4.135.796-6.943.177-1.213.658-2.086 1.442-2.617a4.361 4.361 0 0 1 2.58-.835c.784 0 2.06-.025 3.831-.076l3.3-.038c1.366 0 2.353.038 2.96.114.758.152 1.315.329 1.669.531.38.177.569.494.569.949 0 .506-.177.999-.531 1.48-.33.48-.835.72-1.518.72-.784 0-1.91-.05-3.376-.152-1.467-.1-2.567-.151-3.3-.151-.633 0-1.252.038-1.86.113-.708.051-1.213.14-1.517.266-.303.126-.48.341-.531.645-.354 2.605-.531 4.527-.531 5.766.582.076 1.15.114 1.707.114.708 0 1.467-.038 2.276-.114.81-.076 1.328-.126 1.556-.152 1.34-.126 2.49-.19 3.452-.19.556 0 .974.102 1.252.304.303.203.455.48.455.835 0 .556-.152.986-.455 1.29-.278.303-.784.53-1.518.683-.885.177-1.985.316-3.3.417-1.29.101-2.555.152-3.794.152-.43 0-1.024-.026-1.783-.076a87.65 87.65 0 0 0-.114 4.286c0 1.796 1.189 2.694 3.566 2.694 1.265 0 2.314-.088 3.149-.266a35.77 35.77 0 0 0 2.883-.758c1.012-.38 1.821-.57 2.428-.57Zm13.027-4.59c.076-.202.341-.935.797-2.2.48-1.265.923-2.226 1.328-2.883.657-1.037 1.239-1.556 1.745-1.556.708 0 1.252.14 1.63.418.38.253.57.62.57 1.1 0 .228-.101.544-.304.948-.177.405-.278.645-.303.721a64.13 64.13 0 0 0-2.731 7.17l-.797 2.96c-.304.96-.822 1.744-1.555 2.351-.734.582-1.594.873-2.58.873-.885 0-1.707-.405-2.466-1.214-.455-.708-.936-1.606-1.442-2.694a39.338 39.338 0 0 1-1.252-3.186l-1.327-3.984a66.197 66.197 0 0 1-.683-2.01 5.817 5.817 0 0 1-.228-1.518c-.025-.53.127-.96.455-1.29.33-.328.784-.493 1.366-.493.658 0 1.126.14 1.404.418.278.252.53.657.758 1.213.102.582.38 1.77.835 3.567l.266 1.062c.227.86.518 1.732.872 2.617.354.886.708 1.733 1.062 2.542-.05-.126.127.29.532 1.252.252-.733.543-1.631.872-2.694l1.176-3.49Zm25.811 7.93c0 .556-.303 1.023-.91 1.403-.582.38-1.126.569-1.631.569-.961 0-1.733-.114-2.315-.342-.556-.253-1.074-.708-1.555-1.365-.657.581-1.555 1.024-2.693 1.327-1.138.279-2.188.418-3.149.418-1.568 0-2.858-.418-3.87-1.252-1.011-.86-1.517-2.112-1.517-3.756 0-.708.19-1.353.569-1.935.379-.607.898-1.138 1.555-1.593a8.658 8.658 0 0 1 2.504-1.1 10.2 10.2 0 0 1 2.921-.417c.531 0 1.164.1 1.897.303.734.202 1.303.417 1.707.645v-.607c0-1.366-.329-2.302-.986-2.807-.658-.531-1.72-.797-3.187-.797-.43 0-.86.088-1.29.266-.404.177-.872.417-1.403.72-.708.38-1.379.57-2.011.57-.227 0-.442-.152-.645-.456-.202-.329-.303-.62-.303-.872 0-.734.341-1.366 1.024-1.897.708-.531 1.543-.923 2.504-1.176.961-.278 1.821-.418 2.579-.418.759 0 1.632.152 2.618.456.986.278 1.796.67 2.428 1.176a6.75 6.75 0 0 1 1.745 2.314c.43.86.645 1.808.645 2.845 0 .329-.025.822-.076 1.48a26.49 26.49 0 0 0-.076 1.82c0 .228-.025.57-.076 1.025-.05.556-.076.999-.076 1.328 0 .303.114.569.342.796.228.203.493.304.797.304l1.062-.038c.278 0 .493.101.645.303.151.203.227.456.227.76Zm-12.215-.987c1.087 0 1.998-.114 2.731-.342.734-.227 1.619-.645 2.656-1.252.101-.43.164-.999.189-1.707-1.391-.657-2.541-.986-3.452-.986-1.037 0-1.96.19-2.769.569-.809.38-1.214 1.05-1.214 2.01 0 .481.202.886.607 1.215.405.328.822.493 1.252.493Zm14.866-10.509c-.658-.455-.987-.935-.987-1.441 0-.354.152-.683.455-.987.304-.303.759-.455 1.366-.455.708 0 1.341.19 1.897.57.582.353.986.872 1.214 1.555a7.074 7.074 0 0 1 1.973-1.632c.758-.404 1.53-.607 2.314-.607a4.48 4.48 0 0 1 2.541.76c.759.505 1.139 1.188 1.139 2.048 0 .48-.215.973-.645 1.48-.405.505-.822.758-1.252.758-.228 0-.43-.05-.607-.152a8.762 8.762 0 0 1-.569-.53c-.253-.254-.468-.43-.645-.532a1.02 1.02 0 0 0-.607-.19c-.405 0-.784.063-1.138.19-.354.126-.595.278-.721.455-.405.633-.708 1.201-.911 1.707a4.905 4.905 0 0 0-.265 1.632c0 .43-.013.771-.038 1.024l-.038 2.162c0 .329.013.696.038 1.1.025.405.051.709.076.91.076.684.114 1.341.114 1.974 0 .43-.165.809-.494 1.138a1.647 1.647 0 0 1-1.213.493c-.759 0-1.316-.14-1.67-.417-.354-.304-.531-.848-.531-1.632l-.038-2.428a42.119 42.119 0 0 1-.038-2.048l.038-2.504c.051-1.214.076-2.2.076-2.96a1.53 1.53 0 0 0-.19-.758c-.101-.227-.316-.455-.644-.683Zm28.54 13.468c-.86 0-1.517-.127-1.973-.38-.455-.278-.948-.784-1.479-1.517-.658.582-1.644 1.05-2.959 1.404-1.29.354-2.403.53-3.339.53-1.542 0-2.794-.417-3.755-1.251-.936-.86-1.404-2.112-1.404-3.756 0-.708.19-1.353.569-1.935a6.192 6.192 0 0 1 1.556-1.593c.708-.48 1.542-.86 2.503-1.138.987-.278 1.885-.417 2.694-.417 1.366 0 2.58.126 3.642.379v-.038c0-1.366-.342-2.301-1.025-2.807-.657-.531-1.719-.797-3.186-.797-.936 0-1.745.417-2.428 1.252-.253.329-.784.493-1.593.493-.405 0-.709-.164-.911-.493a2.357 2.357 0 0 1-.265-1.062c0-.734.303-1.366.91-1.897.632-.531 1.391-.923 2.276-1.176.885-.278 1.707-.417 2.466-.417.733 0 1.606.151 2.618.455 1.011.303 1.833.708 2.465 1.214a6.754 6.754 0 0 1 1.746 2.314c.43.86.644 1.808.644 2.845 0 .329-.025.822-.075 1.48a28.774 28.774 0 0 0-.076 1.859c0 .227-.026.518-.076.872-.051.455-.076.835-.076 1.138 0 .329.101.645.303.949.203.303.481.556.835.758.329.177.544.367.645.57.101.202.152.43.152.682 0 .253-.165.57-.493.949-.304.354-.607.53-.911.53Zm-7.587-7.246c-.987 0-1.859.19-2.618.569-.758.38-1.138 1.05-1.138 2.01 0 .481.165.886.493 1.215.354.328.734.493 1.138.493 1.088 0 1.998-.114 2.732-.342.733-.227 1.618-.645 2.655-1.252.127-.404.203-.973.228-1.707 0-.278.013-.493.038-.645-1.366-.227-2.542-.341-3.528-.341Z"/><defs><clipPath id="a"><path fill="#fff" d="M0 7.025h51.52v38.95H0z"/></clipPath></defs></svg>