<svg xmlns="http://www.w3.org/2000/svg" width="205" height="53" fill="none"><g clip-path="url(#a)"><path fill="#66768F" d="m17.857 36.21-.486-1.186a6.28 6.28 0 0 0-3.614-3.615l-1.187-.485-.486-.216-2.751-1.08-.594-.215L5.88 28.28l-2.32-.917c-.377-.162-.593-.431-.593-.863 0-.378.216-.701.594-.863l2.32-.917 2.858-1.133.594-.216L8.2 20.728l-.054-.108-2.751 1.079-3.237 1.294c-.81.324-1.349.756-1.672 1.349C.162 24.882 0 25.637 0 26.5s.162 1.618.486 2.212c.323.593.863 1.025 1.672 1.294l3.237 1.295 2.751 1.08.108.053 2.643 1.025.918-2.104-.918 2.104.594.216a6.28 6.28 0 0 1 3.614 3.614l.216.594 2.751-1.187-.215-.486Z"/><path fill="#C9DAF5" d="M39.004 38.26 37.6 35.078l-1.187-2.698-.053-.108-1.133-2.643-1.187.485 1.187-.485-.27-.54a6.505 6.505 0 0 1 0-5.125l.27-.54-2.806-1.078-.215.485-.486 1.187a6.505 6.505 0 0 0 0 5.125l.486 1.187.215.486 1.187 2.751 1.241-.486-1.24.486.269.593 1.24 2.806 1.026 2.32c.162.377.108.7-.216.97-.27.27-.593.324-.971.216l-2.32-1.025-2.805-1.24-.593-.27-1.025 2.643-.055.108 2.698 1.187 3.183 1.403c.755.323 1.51.431 2.104.27.647-.163 1.24-.594 1.888-1.188.647-.647 1.025-1.24 1.187-1.888.215-.755.108-1.456-.216-2.212Z"/><path fill="#66768F" d="m27.082 9.614-1.295-3.236c-.324-.81-.755-1.35-1.295-1.673-.593-.323-1.295-.485-2.212-.485-.863 0-1.618.162-2.212.485-.593.324-1.025.863-1.294 1.673l-1.295 3.236-1.079 2.752.108.054 1.726.755-1.726-.755-.108-.054-.054.108-1.025 2.643-.216.593a6.28 6.28 0 0 1-3.614 3.615l-.594.216 1.187 2.751.486-.216 1.187-.485a6.28 6.28 0 0 0 3.614-3.615l.486-1.186.215-.486-.755-.324.755.324 1.08-2.805.215-.594 1.133-2.859.917-2.32c.162-.377.432-.593.863-.593h.054c.378 0 .701.216.863.593l.917 2.32 1.133 2.86.216.593 2.643-1.133.108-.054-1.132-2.698Z"/><path fill="#C9DAF5" d="M39.22 12.635c-.162-.647-.594-1.24-1.187-1.888-.648-.647-1.241-1.025-1.888-1.187-.648-.161-1.35-.108-2.104.27l-3.183 1.403-2.698 1.187h-.108l-2.643 1.133-.593.215a6.505 6.505 0 0 1-5.125 0l-.594-.27-1.079 2.806.486.216 1.187.485a6.505 6.505 0 0 0 5.125 0l1.187-.485.485-.216-.216-.486.216.486 2.751-1.187-1.025-2.644v-.053.053l1.025 2.644.594-.27 2.805-1.24 2.32-1.026c.377-.161.701-.107.97.216.27.27.325.594.217.971l-1.025 2.32-1.241 2.805-.27.594 2.643 1.025.108.054 1.187-2.698 1.403-3.183c.377-.7.485-1.402.27-2.05Z"/><path fill="#66768F" d="M44.075 24.288c-.324-.593-.863-1.025-1.672-1.349l-3.237-1.294-2.752-1.08-.053.055.053-.054-.107-.054-2.644-1.025-.593-.162a6.28 6.28 0 0 1-3.615-3.615l-.215-.593-2.752 1.187.216.485.485 1.187a6.28 6.28 0 0 0 3.615 3.615l1.187.485.485.216 2.752 1.079.7-1.565-.7 1.565.593.216 2.86 1.133 2.319.917c.378.162.593.431.593.863 0 .378-.215.647-.593.863l-2.32.917-2.859 1.133-.593.216 1.133 2.643.053.108 2.752-1.079 3.237-1.295c.809-.323 1.348-.755 1.672-1.294.324-.594.485-1.295.485-2.212 0-.863-.161-1.619-.485-2.212Z"/><path fill="#C9DAF5" d="m26.003 36.48-1.187-.54a6.504 6.504 0 0 0-5.125 0l-1.187.54-.486.216-2.751 1.187-.593.27-2.806 1.24-2.211.971c-.378.162-.702.108-.972-.215-.27-.27-.323-.594-.215-.971l1.025-2.32 1.24-2.805.27-.594-2.643-1.025-.108-.054-1.187 2.697-1.403 3.183c-.323.756-.431 1.51-.27 2.104.163.648.594 1.241 1.188 1.889.647.647 1.24 1.025 1.888 1.186.647.162 1.348.108 2.104-.27l3.183-1.402 2.697-1.187.108-.054 2.643-1.133-.647-1.672.647 1.672.54-.27a6.505 6.505 0 0 1 5.125 0l.593.27 1.079-2.751-.54-.162ZM13.703 11.179 10.52 9.776c-.756-.323-1.51-.431-2.104-.27-.648.162-1.241.594-1.888 1.187-.648.648-1.025 1.241-1.187 1.889-.162.647-.108 1.348.27 2.103l1.402 3.183L8.2 20.566l.054.108 1.133 2.643 1.348-.54-1.348.54.27.593a6.505 6.505 0 0 1 0 5.125l-.27.54 2.751 1.079.216-.486.486-1.186a6.505 6.505 0 0 0 0-5.125l-.54-1.187-.216-.486-1.187-2.751-.27-.594-1.24-2.805-1.025-2.32c-.162-.377-.108-.7.216-.97.27-.27.593-.324.97-.216l2.32 1.024 2.806 1.241.593.27 1.025-2.643.054-.108-2.643-1.133Z"/><path fill="#66768F" d="m32.476 30.708-.485.216-1.187.485a6.28 6.28 0 0 0-3.615 3.615l-.485 1.186-.216.486-1.079 2.751-.216.594L24.06 42.9l-.917 2.32c-.162.377-.431.593-.863.593-.378 0-.701-.216-.863-.593L20.5 42.9l-1.133-2.86-.216-.593-2.643 1.133-.108.054 1.079 2.751 1.295 3.237c.323.81.755 1.349 1.294 1.673.594.323 1.295.485 2.212.485.863 0 1.619-.162 2.212-.485.593-.324 1.025-.864 1.295-1.673l1.294-3.237 1.08-2.75h-.055.054l.054-.109 1.025-2.643-1.456-.648 1.456.648.216-.594a6.28 6.28 0 0 1 3.615-3.614l.593-.216-1.187-2.751Z"/></g><path fill="#C9DAF5" d="M55.308 40V13.976h15.023v3.035H58.647v8.422h10.318v3.034H58.647V40h-3.339Zm19.096 0V20.046h3.11V40h-3.11Zm-.076-23.824v-3.604h3.224v3.604h-3.224Zm11.34 30.728c-1.62 0-2.846-.468-3.68-1.403-.835-.91-1.252-2.023-1.252-3.339 0-.96.227-1.833.682-2.617.481-.784 1.113-1.328 1.897-1.632a3.71 3.71 0 0 1-1.214-1.29 3.778 3.778 0 0 1-.417-1.706c0-.81.253-1.505.759-2.087.53-.607 1.214-1.062 2.048-1.366a6.548 6.548 0 0 1-1.707-2.162c-.404-.885-.607-1.884-.607-2.997 0-2.1.582-3.743 1.745-4.932 1.164-1.188 2.757-1.783 4.78-1.783 1.037 0 1.998.24 2.883.721.886-.48 1.493-1.024 1.821-1.631a5.816 5.816 0 0 0 .645-1.86h2.732c0 1.19-.304 2.214-.91 3.074-.582.86-1.392 1.429-2.429 1.707.557.556.987 1.24 1.29 2.048.329.784.493 1.67.493 2.656 0 2.074-.581 3.705-1.745 4.894-1.138 1.188-2.68 1.795-4.628 1.82h-2.087c-.505 0-.935.178-1.29.532-.353.329-.53.746-.53 1.252 0 .48.177.898.53 1.252.38.354.81.53 1.29.53h5.691c1.442 0 2.58.469 3.414 1.404.86.91 1.29 1.998 1.29 3.263 0 1.037-.228 1.985-.683 2.845-.43.86-1.087 1.543-1.972 2.049-.86.505-1.923.758-3.187.758h-5.653Zm.493-2.693h5.5a2.21 2.21 0 0 0 1.67-.72c.455-.456.682-1 .682-1.632 0-.658-.19-1.214-.569-1.67-.379-.43-.973-.644-1.783-.644h-5.5c-.785 0-1.366.215-1.746.645-.379.455-.569 1.011-.569 1.669 0 .632.19 1.176.57 1.631.379.48.96.72 1.745.72Zm2.503-13.771c1.113 0 1.96-.367 2.542-1.1.582-.759.873-1.77.873-3.035 0-1.34-.291-2.365-.873-3.073-.582-.708-1.429-1.062-2.542-1.062-1.087 0-1.922.38-2.503 1.138-.582.733-.873 1.732-.873 2.997 0 1.315.29 2.34.873 3.073.581.708 1.416 1.062 2.503 1.062ZM102.527 40l-4.97-19.954h3.415l2.504 11.229c.126.53.253 1.176.379 1.934.127.734.228 1.391.304 1.973l.113.835h.152l.076-.759c.051-.506.127-1.126.228-1.859.101-.733.202-1.442.303-2.124l2.011-11.23h3.604l2.048 11.23c.076.506.152 1.037.228 1.593.076.531.139 1.037.19 1.517.076.481.126.873.151 1.176l.038.456h.152l.038-.418c.051-.278.101-.644.152-1.1.076-.455.164-.96.265-1.517.101-.582.215-1.151.342-1.707l2.504-11.23h3.148L114.933 40h-3.453l-2.086-11.38a51.84 51.84 0 0 1-.342-2.087l-.189-1.783-.076-.721h-.152l-.076.72c-.05.481-.126 1.076-.227 1.784a31.648 31.648 0 0 1-.304 2.086L105.98 40h-3.453Zm20.189 0V20.046h3.111V40h-3.111Zm-.076-23.824v-3.604h3.225v3.604h-3.225ZM130.831 40V20.046h2.352l.418 2.617h.227a6.342 6.342 0 0 1 1.176-2.086c.531-.658 1.265-.987 2.2-.987.43 0 .785.05 1.063.152l.417.152v3.224h-1.024c-.658 0-1.277.152-1.859.456-.557.278-1.012.758-1.366 1.441-.329.683-.493 1.619-.493 2.807V40h-3.111Zm17.216.455c-2.478 0-4.363-.81-5.652-2.428-1.265-1.644-1.897-4.312-1.897-8.004 0-3.592.619-6.222 1.859-7.891 1.264-1.695 3.148-2.542 5.652-2.542 2.175 0 3.806.734 4.894 2.2 1.113 1.442 1.669 3.832 1.669 7.17v1.973H143.76c.026 2.327.392 4.034 1.101 5.122.708 1.087 1.795 1.63 3.262 1.63.986 0 1.796-.391 2.428-1.175.632-.81.948-1.91.948-3.3h3.073c0 2.225-.607 3.995-1.821 5.31-1.188 1.29-2.756 1.935-4.704 1.935Zm-4.249-12.291h7.512c0-1.897-.279-3.338-.835-4.325-.556-.986-1.378-1.48-2.466-1.48-1.391 0-2.415.494-3.073 1.48-.632.961-1.011 2.403-1.138 4.325Z"/><defs><clipPath id="a"><path fill="#fff" d="M0 4.22h44.56v44.56H0z"/></clipPath></defs></svg>