<svg xmlns="http://www.w3.org/2000/svg" width="205" height="43" fill="none"><g clip-path="url(#a)"><path fill="#66768F" d="M30.966 21.326a3.626 3.626 0 0 1 2.266.054c.27.108.54.216.809.378.27.162.54.27.755.485.54.324.971.756 1.403 1.187a9.19 9.19 0 0 1 2.05 3.453c.431 1.349.647 2.967.431 4.585-.161 1.673-.7 3.345-1.618 4.964-.54.97-1.456 1.726-2.374 2.103-.215.108-.485.162-.7.216-.217.054-.486.054-.702.054-.432 0-.863-.108-1.241-.27-.701-.377-1.025-1.024-1.079-1.78-.054-.701.216-1.51.701-2.212.594-.917 1.025-1.888 1.241-2.859a7.584 7.584 0 0 0 .054-2.913c-.054-.216-.108-.486-.162-.701-.054-.108-.054-.216-.108-.324-.054-.108-.054-.216-.108-.324-.108-.215-.161-.431-.27-.593-.107-.216-.215-.378-.323-.594a7.213 7.213 0 0 0-1.726-1.888c-.54-.431-.917-.917-1.025-1.294-.162-.432-.054-.756.323-1.133.162-.162.378-.27.594-.432.27 0 .54-.108.809-.162Z"/><path fill="#C9DAF5" d="M26.165 29.31c.485.486.97 1.187 1.078 1.997.054.323.054.593.054.863v.917c0 .324-.054.593-.108.917a5.649 5.649 0 0 1-.215.917 9.213 9.213 0 0 1-1.996 3.507c-.971 1.079-2.266 1.996-3.777 2.697-1.51.647-3.29 1.079-5.125 1.079-1.079 0-2.212-.378-3.02-1.025-.81-.647-1.295-1.457-1.35-2.266-.053-.809.378-1.402.972-1.834.323-.216.647-.324 1.025-.432.377-.108.809-.108 1.24-.108 1.08.054 2.158-.053 3.075-.377.486-.162.918-.378 1.35-.593.215-.108.43-.27.593-.378.215-.108.377-.27.539-.432.378-.27.701-.647.971-.97.162-.163.27-.378.378-.54.108-.162.215-.378.323-.54.432-.755.648-1.618.81-2.427.053-.378.108-.648.215-.918.054-.107.108-.27.162-.377.054-.054.054-.108.108-.162.054-.054.054-.108.108-.108.27-.323.647-.431 1.133-.27.108.054.216.054.324.108l.323.162c.378.216.648.378.81.594Z"/><path fill="#66768F" d="M16.886 29.149a3.551 3.551 0 0 1-1.187 1.942c-.917.701-2.05 1.294-3.291 1.564-1.24.27-2.59.324-4.046.054-1.403-.27-2.86-.917-4.208-1.888-1.295-1.025-2.535-2.32-3.507-3.938A5.396 5.396 0 0 1 0 23.754c0-.108.054-.27.054-.378.054-.108.054-.216.108-.377.054-.216.162-.432.27-.648.215-.377.54-.701.863-.917.701-.431 1.402-.377 2.05-.054.324.162.647.378.863.702.162.161.27.323.378.485.108.162.215.378.323.54.486.97 1.133 1.834 1.888 2.481a7.496 7.496 0 0 0 2.482 1.51c.432.163.863.27 1.349.324.431.054.917.108 1.348.054a5.32 5.32 0 0 0 1.295-.162c.432-.107.81-.215 1.187-.377.324-.108.647-.216.917-.27.162 0 .27-.054.378 0 .108 0 .216 0 .323.054.432.108.702.324.81.81.162.485.162 1.078 0 1.618Z"/><path fill="#C9DAF5" d="M12.354 21.003a3.626 3.626 0 0 1-2.266-.054 5.448 5.448 0 0 1-.809-.378c-.27-.162-.54-.27-.755-.486-.54-.323-.971-.755-1.403-1.186a9.19 9.19 0 0 1-2.05-3.453c-.431-1.349-.647-2.967-.431-4.585.161-1.673.7-3.345 1.618-4.964.54-.97 1.457-1.726 2.374-2.104.215-.107.485-.161.701-.215.216-.054.486-.054.701-.054a3.2 3.2 0 0 1 1.241.27c.701.377 1.025 1.024 1.08 1.78.053.701-.217 1.51-.702 2.212-.594.917-1.025 1.888-1.241 2.859a7.584 7.584 0 0 0-.054 2.913c.054.216.108.485.162.701.054.108.054.216.108.324.054.108.054.216.108.324.107.215.162.431.27.593.107.216.215.378.323.593a7.213 7.213 0 0 0 1.726 1.889c.54.431.918.917 1.025 1.294.162.432.054.756-.323 1.133-.162.162-.378.27-.594.432-.27 0-.54.108-.809.162Z"/><path fill="#66768F" d="M17.155 13.018c-.485-.485-.97-1.186-1.079-1.996-.054-.323-.054-.593-.054-.863v-.917c0-.324.054-.593.108-.917.054-.324.108-.593.216-.917A9.214 9.214 0 0 1 18.342 3.9c.971-1.079 2.266-1.996 3.776-2.697C23.628.557 25.41.125 27.243.125c1.08 0 2.212.378 3.021 1.025.81.647 1.295 1.457 1.35 2.266.053.809-.379 1.402-.972 1.834-.324.216-.647.324-1.025.432-.378.107-.81.107-1.24.107-1.08-.053-2.159.054-3.076.378-.485.162-.917.378-1.348.594-.216.107-.432.27-.594.377-.216.108-.378.27-.54.432-.377.27-.7.647-.97.97-.162.163-.27.378-.378.54-.108.162-.216.378-.324.54-.431.755-.647 1.618-.809 2.427-.054.378-.108.648-.216.917-.054.108-.108.27-.162.378-.053.054-.053.108-.107.162-.054.054-.054.108-.108.108-.27.323-.648.431-1.133.27-.108-.054-.216-.054-.324-.108l-.324-.162c-.377-.216-.593-.378-.809-.594Z"/><path fill="#C9DAF5" d="M26.434 13.18a3.552 3.552 0 0 1 1.187-1.942c.917-.701 2.05-1.295 3.29-1.564 1.242-.27 2.59-.324 4.047-.054 1.403.27 2.86.917 4.208 1.888 1.349.97 2.535 2.32 3.507 3.884.539.971.755 2.104.647 3.129 0 .108-.054.27-.054.378-.054.108-.054.215-.108.377-.054.216-.162.432-.27.648-.215.377-.54.701-.863.917-.701.431-1.402.377-2.05.054-.324-.162-.647-.378-.863-.702-.162-.161-.27-.323-.378-.485-.108-.162-.215-.378-.323-.54-.486-.97-1.133-1.834-1.889-2.481a7.497 7.497 0 0 0-2.481-1.51 5.483 5.483 0 0 0-1.349-.324c-.431-.054-.863-.108-1.349-.054a5.32 5.32 0 0 0-1.294.162c-.432.107-.81.215-1.187.377-.324.108-.647.216-.917.27-.162 0-.27.054-.378 0-.108 0-.216 0-.323-.054-.432-.108-.702-.324-.81-.81-.162-.43-.108-.97 0-1.564Z"/></g><path fill="#C9DAF5" d="M51.92 9.842h18.917v4.609h-6.944v17.21h-4.64v-17.21h-7.332V9.84ZM82.404 23.4c0-.539-.07-.978-.21-1.317-.119-.339-.288-.608-.508-.808-.22-.2-.469-.34-.748-.419-.26-.08-.52-.12-.778-.12h-1.407c-.18 0-.39.03-.629.09-.24.04-.469.11-.688.21-.2.1-.37.23-.509.389-.14.16-.21.339-.21.538v9.698h-4.04V9.841h4.04v8.232c.3-.16.659-.3 1.078-.42.439-.14.878-.209 1.317-.209h1.616c.599 0 1.188.1 1.766.3.599.199 1.138.518 1.616.957.48.42.868.978 1.168 1.676.299.679.449 1.507.449 2.484v8.8h-3.323v-8.26Zm12.39-5.986c.699 0 1.367.11 2.006.33a5.26 5.26 0 0 1 1.676.927c.499.4.888.898 1.167 1.497.3.578.449 1.227.449 1.945v3.382h-8.89v1.377c0 .18.03.4.09.659.08.259.21.509.39.748.18.22.428.409.748.569.319.16.728.239 1.227.239h1.167c1.437 0 2.155-.658 2.155-1.975h3.382v.898c0 .718-.139 1.316-.419 1.795-.279.46-.648.829-1.107 1.108-.459.28-.988.469-1.586.569-.599.12-1.218.18-1.856.18h-2.873c-.5 0-1.018-.07-1.557-.21a4.692 4.692 0 0 1-1.496-.719 4.381 4.381 0 0 1-1.198-1.287c-.339-.559-.568-1.237-.688-2.035v-5.298c0-.658.15-1.267.449-1.826a4.84 4.84 0 0 1 1.197-1.496 5.385 5.385 0 0 1 1.736-1.018 6.34 6.34 0 0 1 2.125-.359h1.706Zm-3.591 5.836h5.477v-.897c0-.26-.07-.51-.21-.749a1.83 1.83 0 0 0-.508-.658c-.22-.2-.47-.35-.749-.45-.279-.119-.558-.179-.838-.179h-.957c-.28 0-.56.06-.839.18-.259.1-.498.25-.718.449a2 2 0 0 0-.479.658c-.12.24-.18.49-.18.749v.897Zm26.711-10.415h-9.548v5.986h8.411v2.903h-8.411v9.937h-5.058V9.871h14.606v2.964Zm5.869 18.826h-3.921V9.841h3.921v21.82Zm7.29 0c-.638 0-1.257-.09-1.855-.27a4.22 4.22 0 0 1-1.527-.837 3.839 3.839 0 0 1-1.048-1.377c-.259-.579-.389-1.257-.389-2.035v-5.328c0-.619.14-1.197.419-1.736.3-.539.689-1.008 1.168-1.407a5.565 5.565 0 0 1 1.736-.928 6.58 6.58 0 0 1 2.095-.329h1.856c.838 0 1.596.12 2.274.36.699.239 1.297.558 1.796.957.499.4.878.878 1.138 1.437.279.558.419 1.147.419 1.766v5.507c0 .618-.11 1.187-.33 1.706a3.504 3.504 0 0 1-.957 1.317c-.42.379-.918.668-1.497.868-.579.22-1.227.33-1.946.33h-3.352Zm2.305-2.724c.339 0 .628-.06.868-.18.259-.139.469-.299.628-.478.18-.2.31-.41.39-.629.079-.24.119-.469.119-.688v-4.25c0-.48-.199-.938-.598-1.377-.379-.459-.918-.688-1.617-.688h-.838c-.279 0-.558.04-.838.12a2.44 2.44 0 0 0-.748.388c-.22.16-.399.37-.539.629-.139.26-.209.579-.209.958v4.07c0 .16.02.37.06.629.059.24.159.469.299.688.16.22.369.41.628.569.28.16.629.24 1.048.24h1.347Zm23.661-11.493h5.538l-5.418 14.217h-3.831l-1.886-4.939-1.885 4.94h-3.622l-5.417-14.218h4.25c.499 1.297.987 2.584 1.466 3.861.479 1.257.978 2.534 1.497 3.831.02-.08.08-.25.179-.509.12-.259.25-.568.39-.927l.449-1.228.538-1.377-1.377-3.651h3.173c.499 1.297.988 2.584 1.467 3.861.479 1.257.977 2.534 1.496 3.831l2.993-7.692Z"/><defs><clipPath id="a"><path fill="#fff" d="M0 .125h43.32v42.079H0z"/></clipPath></defs></svg>