<svg xmlns="http://www.w3.org/2000/svg" width="22" height="22" fill="none"><path fill="#fff" d="M11 6.033a5.2 5.2 0 0 0-2.697.744A5.363 5.363 0 0 0 6.35 8.73a5.21 5.21 0 0 0-.698 2.651c0 .961.233 1.86.698 2.697a5.883 5.883 0 0 0 1.953 1.953A5.466 5.466 0 0 0 11 16.73a5.21 5.21 0 0 0 2.65-.698 5.363 5.363 0 0 0 1.954-1.953 5.201 5.201 0 0 0 .744-2.697c0-.961-.248-1.845-.744-2.65a4.933 4.933 0 0 0-1.953-1.954A4.96 4.96 0 0 0 11 6.033Zm0 8.836a3.36 3.36 0 0 1-2.464-1.023 3.36 3.36 0 0 1-1.024-2.465 3.36 3.36 0 0 1 1.024-2.465A3.36 3.36 0 0 1 11 7.893a3.36 3.36 0 0 1 2.465 1.023 3.36 3.36 0 0 1 1.023 2.465 3.36 3.36 0 0 1-1.023 2.465A3.36 3.36 0 0 1 11 14.869ZM17.836 5.8c-.03.34-.17.635-.418.883a1.062 1.062 0 0 1-.837.372c-.341 0-.636-.124-.884-.372a1.207 1.207 0 0 1-.372-.883c0-.341.124-.636.372-.884s.543-.372.884-.372c.34 0 .635.124.883.372s.372.543.372.884Zm3.534 1.255c-.062-.899-.201-1.674-.418-2.325a5.088 5.088 0 0 0-1.302-2 5.09 5.09 0 0 0-2-1.302c-.651-.217-1.426-.34-2.325-.372C14.457.995 13.015.964 11 .964s-3.472.031-4.371.093C5.76 1.088 5 1.212 4.35 1.43a5.493 5.493 0 0 0-2.046 1.302 5.35 5.35 0 0 0-1.255 2C.832 5.382.692 6.157.63 7.056c-.031.868-.047 2.31-.047 4.325S.6 14.853.63 15.752c.062.868.202 1.628.419 2.279a5.796 5.796 0 0 0 1.255 2.046 5.276 5.276 0 0 0 2.046 1.21c.651.247 1.41.387 2.279.418.899.062 2.356.093 4.371.093 2.015 0 3.457-.031 4.325-.093.899-.031 1.674-.155 2.325-.372a5.35 5.35 0 0 0 2-1.256 5.492 5.492 0 0 0 1.302-2.046c.217-.651.34-1.41.372-2.279.062-.899.093-2.356.093-4.371 0-2.015-.016-3.457-.047-4.325ZM19.138 17.52c-.372.93-1.038 1.597-2 2-.496.186-1.333.31-2.51.372-.652.031-1.613.047-2.884.047h-1.488a67.85 67.85 0 0 1-2.883-.047c-1.147-.062-1.984-.186-2.511-.372-.93-.372-1.597-1.038-2-2-.186-.527-.31-1.364-.372-2.51a67.85 67.85 0 0 1-.046-2.884v-1.488c0-1.24.015-2.201.046-2.883.062-1.178.186-2.015.372-2.511.372-.961 1.039-1.628 2-2 .527-.186 1.364-.31 2.51-.372a67.85 67.85 0 0 1 2.884-.047h1.488c1.24 0 2.201.016 2.883.047 1.178.062 2.015.186 2.512.372.96.372 1.627 1.039 2 2 .185.496.31 1.333.371 2.51.031.652.047 1.613.047 2.884v1.488c0 1.24-.016 2.201-.047 2.883-.062 1.147-.186 1.984-.372 2.511Z"/></svg>