<svg xmlns="http://www.w3.org/2000/svg" width="205" height="53" fill="none"><g clip-path="url(#a)"><path fill="#C9DAF5" d="m29.401 11.368-.647-1.727s-.27-.809-.432-1.025c-.054-.107-.215-.27-.323-.431-.648-.648-1.619-.971-2.428-.701-.54.161-1.025.377-1.025.377l-1.726.755c-.54.27-1.133.432-1.727.54-1.24.27-2.481.27-3.668 0-.593-.108-1.187-.324-1.726-.54l-1.619-.7s-.917-.432-1.24-.54c-.81-.216-1.673.108-2.32.755-.108.108-.27.324-.324.485-.162.27-.378 1.025-.378 1.025l-.647 1.727c-.216.593-.486 1.079-.81 1.618.486-.108 1.026-.054 1.565.216l2.536 1.133 2.158.917.108.054 2.535 1.079a5.26 5.26 0 0 0 4.046 0l2.59-1.133.108-.054 2.157-.917 2.536-1.133c.593-.27 1.079-.324 1.564-.216-.377-.485-.647-1.025-.863-1.564ZM34.418 36.615l1.727-.647 1.025-.432c.162-.108.27-.216.377-.324.648-.647.918-1.564.702-2.427l-.432-.971-.755-1.727c-.27-.539-.432-1.132-.54-1.726a8.413 8.413 0 0 1 0-3.668c.108-.594.324-1.187.54-1.727l.701-1.618.54-1.24c.108-.81-.108-1.673-.756-2.32-.107-.108-.215-.216-.323-.27l-1.187-.486-1.619-.647c-.593-.216-1.078-.486-1.618-.81.108.486.054 1.026-.216 1.565l-1.133 2.536-.917 2.158-.054.108-1.133 2.589a5.26 5.26 0 0 0 0 4.046l1.133 2.59.054.107.917 2.158 1.133 2.536c.27.593.324 1.079.216 1.564.54-.377 1.079-.647 1.618-.917ZM9.117 41.686l.647 1.727s.27.809.432 1.025c.054.108.216.27.324.431.647.648 1.618.971 2.427.702.54-.162 1.025-.378 1.025-.378l1.727-.755c.54-.27 1.132-.432 1.726-.54a8.416 8.416 0 0 1 3.668 0c.594.108 1.187.324 1.727.54l1.618.701s.917.432 1.24.54c.81.215 1.673-.108 2.32-.756.108-.108.27-.324.324-.485.162-.27.378-1.025.378-1.025l.647-1.673c.216-.593.486-1.079.81-1.618-.486.108-1.026.054-1.565-.216l-2.535-1.133-2.158-.917-.108-.054-2.59-1.133a5.26 5.26 0 0 0-4.046 0l-2.59 1.133-2.157.917-2.536 1.133c-.593.27-1.079.324-1.564.216.324.486.593 1.025.81 1.618ZM4.1 16.385l-1.726.647-1.025.432c-.162.108-.27.216-.378.324-.647.647-.917 1.564-.701 2.427l.431.971.756 1.727c.27.539.431 1.132.54 1.726.269 1.24.269 2.481 0 3.668-.109.594-.325 1.187-.54 1.727l-.702 1.618-.54 1.24c-.107.81.109 1.673.756 2.32.108.108.216.216.324.27l1.187.486 1.672.647c.593.216 1.079.486 1.618.81-.107-.486-.054-1.026.216-1.565l1.133-2.536.917-2.157.054-.108 1.133-2.59a5.26 5.26 0 0 0 0-4.046l-1.133-2.59-.054-.107-.917-2.158-1.187-2.428c-.27-.593-.323-1.079-.216-1.564-.485.27-1.025.593-1.618.809Z"/><path fill="#66768F" d="M15.699 8.455 14.026 7.7s-.755-.378-1.025-.432c-.162-.054-.377-.054-.54-.054-.97 0-1.833.486-2.211 1.24-.27.486-.432.972-.432.972l-.7 1.726a7.563 7.563 0 0 1-.81 1.619 8.823 8.823 0 0 1-2.644 2.643c-.485.324-1.025.594-1.618.863l-1.618.648s-.971.323-1.241.485C.377 17.842 0 18.705 0 19.622c0 .162.054.432.108.593.054.27.431 1.025.431 1.025l.756 1.673c.216.431.377.917.485 1.402.054.108.216.162.27.054.27-.27.593-.54 1.079-.7l2.59-1.026 2.211-.863.108-.054 2.644-1.025c1.294-.54 2.373-1.564 2.859-2.86l1.025-2.643.054-.108.863-2.211 1.025-2.59c.162-.431.431-.81.701-1.079.108-.108.054-.27-.054-.27-.54-.107-.97-.27-1.456-.485ZM37.332 22.913l.755-1.727.431-1.024c.054-.162.054-.324.054-.54 0-.971-.485-1.78-1.24-2.266l-1.025-.377-1.727-.702a7.568 7.568 0 0 1-1.618-.809 8.824 8.824 0 0 1-2.644-2.643c-.323-.486-.593-1.025-.863-1.619l-.647-1.618-.485-1.241v-.054a2.734 2.734 0 0 0-2.158-1.079c-.162 0-.324 0-.432.054l-1.187.486-1.672.755a6.162 6.162 0 0 1-1.403.485c-.108.054-.162.216-.054.27.27.27.54.594.701 1.08l1.026 2.588.863 2.212.054.108 1.025 2.644c.54 1.294 1.564 2.373 2.859 2.859l2.643 1.025.108.054 2.212.863 2.59 1.025c.431.162.809.432 1.078.701.108.108.27.054.27-.054.108-.54.27-.97.486-1.456ZM22.874 44.546l1.726.755s.755.378 1.025.432c.108.054.378.054.54.054.97 0 1.834-.486 2.211-1.241.27-.486.432-.971.432-.971l.701-1.727a7.563 7.563 0 0 1 .81-1.618 8.824 8.824 0 0 1 2.643-2.643c.485-.324 1.025-.594 1.618-.864l1.619-.647s.97-.324 1.24-.486c.756-.377 1.133-1.294 1.133-2.157 0-.162-.053-.432-.107-.594-.108-.323-.486-1.025-.486-1.025l-.755-1.672a6.161 6.161 0 0 1-.486-1.403c-.054-.108-.215-.162-.27-.054-.27.27-.593.54-1.078.702l-2.59 1.025-2.212.863-.108.054-2.643 1.025c-1.295.54-2.374 1.564-2.86 2.859l-1.024 2.643-.054.108-.756 2.158-1.024 2.59c-.162.431-.432.809-.702 1.078-.108.108-.054.27.054.27.486.108.971.27 1.403.486ZM1.24 30.088l-.754 1.726-.432 1.025C0 33.001 0 33.163 0 33.38c0 .97.486 1.78 1.24 2.266l1.026.377 1.726.701a7.568 7.568 0 0 1 1.619.81 8.824 8.824 0 0 1 2.643 2.643c.324.486.593 1.025.863 1.618l.647 1.619.486 1.24v.055a2.734 2.734 0 0 0 2.158 1.079c.162 0 .324 0 .431-.054l1.187-.486 1.673-.755a6.167 6.167 0 0 1 1.402-.486c.108-.054.162-.215.054-.27-.27-.27-.54-.593-.701-1.078l-1.025-2.59-.863-2.212-.054-.108-1.025-2.589c-.54-1.295-1.565-2.374-2.86-2.86l-2.643-1.024-.108-.054-2.212-.863-2.589-1.025a3.115 3.115 0 0 1-1.079-.702c-.108-.108-.27-.054-.27.054-.108.486-.27.971-.485 1.403Z"/></g><path fill="#C9DAF5" d="M58.994 16.2c0 1.594.986 5.463 2.959 11.609l1.214 3.793.265-.076c.026-.53 1.594-5.74 4.704-15.63 0-.252-.139-.492-.417-.72a2.038 2.038 0 0 0-.872-.493l.113-.531c1.265.1 2.997.152 5.198.152 2.2 0 3.958-.102 5.273-.304l.19.948c-1.215.38-2.441.645-3.68.797-.127.607-.19 1.694-.19 3.263 0 1.542.202 4.653.607 9.332.43 4.679.822 7.79 1.176 9.332 1.34.127 2.731.367 4.173.721l-.114.91a56.65 56.65 0 0 0-6.07-.303c-2.175 0-3.932.101-5.273.303l-.151-.948a22.586 22.586 0 0 1 3.641-.797c0-2.402-.139-5.715-.417-9.939-.278-4.224-.632-7.84-1.062-10.85l-.114-.038c-3.617 10.016-5.513 16.11-5.69 18.286-1.644.986-2.87 1.947-3.68 2.883l-.456-.304c.051-.556.076-.973.076-1.252 0-2.959-1.656-9.496-4.97-19.613l-.151.038-1.176 8.308c-.506 3.617-.759 6.88-.759 9.788 0 .936.101 1.707.304 2.314.227.607.67 1.088 1.327 1.442l-.151.53c-.784-.1-2.125-.151-4.021-.151-1.872 0-3.554.101-5.046.303l-.152-.948a22.59 22.59 0 0 1 3.642-.797l4.249-21.168c-2.984 0-4.894.405-5.728 1.214-.178.354-.266.91-.266 1.67 0 .758.127 1.276.38 1.554l-.038.266c-.633.38-1.265.91-1.897 1.593a.974.974 0 0 1-.721-.379 1.162 1.162 0 0 1-.304-.797c0-1.239.746-2.718 2.239-4.438 1.492-1.72 2.883-2.808 4.173-3.263.202 0 1.112.089 2.731.266 1.619.152 2.87.227 3.756.227.91 0 1.77-.075 2.58-.227l.151.948c-1.037.405-1.555.797-1.555 1.176Zm30.41 23.255c-2.503 0-4.526-.784-6.07-2.352-1.542-1.593-2.313-3.718-2.313-6.373 0-2.656.81-5.147 2.428-7.474 1.618-2.326 3.73-3.819 6.335-4.476 2.605 0 4.59.746 5.956 2.238 1.366 1.467 2.049 3.566 2.049 6.298 0 2.731-.746 5.197-2.239 7.397-1.466 2.2-3.515 3.781-6.145 4.742Zm-.644-18.36c-1.138 0-2.125.315-2.96.948-1.036 1.77-1.555 3.995-1.555 6.676 0 3.086.86 5.45 2.58 7.094.91.886 1.985 1.328 3.225 1.328 1.239 0 2.238-.329 2.997-.986 1.011-1.77 1.517-3.933 1.517-6.487 0-2.555-.455-4.616-1.366-6.184-.91-1.593-2.39-2.39-4.438-2.39Zm21.386 18.17c-1.315-.176-2.795-.265-4.438-.265-1.619 0-3.073.101-4.363.303l-.152-.986a18.683 18.683 0 0 1 2.276-.569c.228-1.973.342-4.552.342-7.739v-1.783c0-3.389-.127-5.994-.38-7.815-.682-.076-1.504-.278-2.465-.607l.113-.986c1.442.278 2.947.417 4.515.417 1.593 0 2.731-.088 3.414-.265l.076.645c-.683.177-1.024.467-1.024.872 0 .304.29.949.872 1.935.607.96 1.189 1.897 1.745 2.807 1.669 2.656 3.642 5.918 5.918 9.788l.114-.076v-4.628c0-3.39-.177-5.931-.531-7.626-.354-1.72-.961-2.718-1.821-2.997l.076-.645c.657.127 1.644.19 2.959.19 1.315 0 2.668-.139 4.059-.417l.114.986c-1.037.329-1.909.531-2.618.607-.253 2.023-.379 4.628-.379 7.815v1.783c0 3.844.126 6.45.379 7.815 1.063.177 1.91.38 2.542.607l-.114.986c-1.264-.278-2.453-.417-3.566-.417s-1.972.05-2.579.152c0-.557-.392-1.492-1.176-2.808a117.472 117.472 0 0 0-2.087-3.49 396.335 396.335 0 0 1-6.032-10.09l-.152.075v5.084c0 5.033.38 8.308 1.139 9.825a28.76 28.76 0 0 1 3.338.57l-.114.948Zm17.05-3.148c1.163.48 2.314.72 3.452.72s2.048-.265 2.731-.796c.683-.531 1.024-1.29 1.024-2.276 0-1.012-1.428-2.264-4.286-3.756A15.12 15.12 0 0 1 127.12 28c-.886-.81-1.328-1.607-1.328-2.39 0-1.34.708-2.694 2.124-4.06 1.417-1.365 2.871-2.288 4.363-2.77 1.872 0 3.566.19 5.083.57v.683c-1.062 1.062-1.656 2.516-1.783 4.363h-.948c0-.709-.063-1.594-.19-2.656a6.758 6.758 0 0 0-2.845-.607c-1.011 0-1.859.228-2.542.683-.657.43-.986 1.062-.986 1.897 0 .581.443 1.214 1.328 1.896.91.683 1.897 1.29 2.959 1.821a13.475 13.475 0 0 1 2.921 1.973c.91.784 1.366 1.568 1.366 2.352 0 1.518-.671 3.035-2.011 4.552-1.34 1.493-2.82 2.542-4.438 3.15-1.594 0-3.086-.19-4.477-.57-.405.177-.822.468-1.252.873l-.683-.493c1.417-1.543 2.201-3.453 2.352-5.729h.949c0 .885.038 1.745.114 2.58Zm25.769-14.833c-.886-.43-1.733-.645-2.542-.645-.809 0-1.353.05-1.631.152-.203 1.365-.304 4.008-.304 7.928s.139 6.93.417 9.03c1.139.126 2.188.315 3.149.568l-.114.949c-1.315-.177-2.832-.266-4.552-.266-1.694 0-3.187.101-4.476.303l-.152-.986c.506-.152 1.378-.341 2.617-.569.228-1.82.342-4.4.342-7.739v-1.783c0-1.77-.139-4.249-.417-7.435-.279-.102-.797-.152-1.556-.152s-1.568.177-2.428.53c-.253.785-.43 1.834-.531 3.15h-.986c0-2.074-.342-3.68-1.025-4.818l.19-.645c1.948.253 4.679.38 8.194.38 3.516 0 6.348-.14 8.498-.418l.228.72c-.632.709-1.062 1.404-1.29 2.087-.228.658-.367 1.556-.417 2.694h-.949c-.177-.835-.265-1.847-.265-3.035Z"/><defs><clipPath id="a"><path fill="#fff" d="M0 7.214h38.572v38.572H0z"/></clipPath></defs></svg>