<svg xmlns="http://www.w3.org/2000/svg" width="24" height="23" fill="none"><path fill="#fff" d="M23.858 17.752c-.248.558-1.302.977-3.162 1.256-.031.062-.078.248-.14.558l-.139.558c-.093.279-.279.418-.558.418-.124 0-.326-.03-.605-.093a6.287 6.287 0 0 0-1.209-.14c-.589 0-1.07.078-1.441.233-.248.124-.651.372-1.21.744-.62.434-1.13.744-1.534.93a4.343 4.343 0 0 1-1.906.326c-.62.062-1.256-.062-1.907-.372-.403-.186-.868-.465-1.395-.837l-.047-.047c-.558-.372-.96-.62-1.209-.744-.372-.155-.852-.232-1.441-.232-.341 0-.76.062-1.256.186a4.934 4.934 0 0 1-.558.046c-.279 0-.465-.14-.558-.418l-.14-.512c-.062-.34-.108-.542-.14-.604-2.107-.31-3.177-.806-3.208-1.488 0-.125.031-.233.093-.326.093-.124.202-.186.326-.186 1.364-.217 2.557-.93 3.58-2.14.527-.62.915-1.24 1.163-1.86v-.046c.186-.34.233-.62.14-.837-.093-.217-.28-.387-.558-.511a7.884 7.884 0 0 0-.791-.326l-.326-.093c-.899-.372-1.302-.806-1.209-1.302.062-.279.264-.496.605-.651.372-.155.682-.17.93-.047.434.186.806.28 1.116.28.186 0 .341-.032.465-.094l-.046-.558A52.435 52.435 0 0 1 5.49 6.22c.03-.96.155-1.705.372-2.232.682-1.519 1.736-2.589 3.162-3.209a6.439 6.439 0 0 1 2.744-.604h.464c1.272 0 2.419.325 3.442.976 1.085.651 1.906 1.597 2.464 2.837.217.527.341 1.271.372 2.232 0 .59-.03 1.442-.093 2.558l-.046.604a.923.923 0 0 0 .418.093c.31 0 .651-.093 1.023-.279.31-.155.636-.155.977 0 .465.155.698.434.698.838 0 .434-.403.821-1.21 1.162l-.325.093c-.775.248-1.225.527-1.349.837-.093.217-.046.496.14.837v.047c.248.62.635 1.24 1.163 1.86 1.023 1.209 2.216 1.922 3.58 2.139a.425.425 0 0 1 .326.279c.093.124.108.279.046.465Z"/></svg>