<svg xmlns="http://www.w3.org/2000/svg" width="24" height="21" fill="none"><path fill="#fff" d="M21.44 5.545c.031.124.047.325.047.604 0 2.232-.543 4.387-1.628 6.464-1.116 2.201-2.682 3.953-4.697 5.255-2.201 1.457-4.728 2.186-7.58 2.186-2.728 0-5.224-.729-7.487-2.186.341.03.729.046 1.163.046 2.263 0 4.294-.697 6.092-2.092-1.085 0-2.046-.31-2.884-.93a5.044 5.044 0 0 1-1.674-2.418c.31.03.605.046.884.046.434 0 .868-.046 1.302-.14-1.116-.247-2.046-.821-2.79-1.72-.744-.9-1.116-1.922-1.116-3.07v-.092c.682.403 1.41.62 2.185.65a5.417 5.417 0 0 1-1.58-1.766 4.646 4.646 0 0 1-.605-2.325c0-.869.232-1.69.697-2.465a13.538 13.538 0 0 0 4.418 3.627c1.767.9 3.643 1.395 5.627 1.488a6.778 6.778 0 0 1-.093-1.116c0-.868.217-1.674.651-2.418a4.732 4.732 0 0 1 1.767-1.814 4.716 4.716 0 0 1 2.418-.65c.713 0 1.364.139 1.953.418a5.43 5.43 0 0 1 1.628 1.116 9.935 9.935 0 0 0 3.116-1.163c-.372 1.147-1.085 2.046-2.14 2.698.93-.124 1.86-.388 2.79-.791a10.733 10.733 0 0 1-2.464 2.558Z"/></svg>