<svg xmlns="http://www.w3.org/2000/svg" width="24" height="24" fill="none"><g clip-path="url(#a)"><circle cx="12.5" cy="12.5" r="7.5" fill="#E6F0FF"/><path fill="url(#b)" d="M8.25 10.81v5.577a.114.114 0 0 0 .114.113h7.275a.114.114 0 0 0 .111-.113V10.81L12 7.06l-3.75 3.75Z"/><path fill="url(#c)" d="M12 .75A11.25 11.25 0 1 0 23.25 12 11.263 11.263 0 0 0 12 .75Zm6.155 11.405a.713.713 0 0 1-.905.104v4.125A1.615 1.615 0 0 1 15.636 18H8.361a1.615 1.615 0 0 1-1.611-1.613v-4.125a.74.74 0 0 1-1.125-.634.75.75 0 0 1 .22-.53L6.97 9.973l4.5-4.5a.75.75 0 0 1 1.06 0l4.5 4.5 1.125 1.125a.75.75 0 0 1 0 1.057Z"/></g><defs><linearGradient id="b" x1="8.693" x2="16.714" y1="16.5" y2="15.626" gradientUnits="userSpaceOnUse"><stop stop-color="#0EA5EA"/><stop offset="1" stop-color="#0BD1D1"/></linearGradient><linearGradient id="c" x1="2.08" x2="25.979" y1="23.25" y2="19.973" gradientUnits="userSpaceOnUse"><stop stop-color="#0EA5EA"/><stop offset="1" stop-color="#0BD1D1"/></linearGradient><clipPath id="a"><path fill="#fff" d="M0 0h24v24H0z"/></clipPath></defs></svg>