<svg xmlns="http://www.w3.org/2000/svg" width="10" height="10" fill="none"><path stroke="url(#a)" stroke-linecap="round" stroke-linejoin="round" stroke-width=".868" d="m3.319 4.736.93.933L6.11 3.802"/><path stroke="url(#b)" stroke-linecap="round" stroke-linejoin="round" stroke-width=".868" d="M4.233 1.052a.777.777 0 0 1 .971 0l.61.525c.116.1.332.181.486.181h.655c.41 0 .745.336.745.744v.656c0 .15.08.37.181.486l.525.61a.777.777 0 0 1 0 .971l-.525.61a.855.855 0 0 0-.181.486v.655a.747.747 0 0 1-.745.745H6.3c-.15 0-.37.08-.486.18l-.61.525a.777.777 0 0 1-.971 0l-.61-.524a.855.855 0 0 0-.486-.181H2.47a.747.747 0 0 1-.744-.745v-.66a.878.878 0 0 0-.178-.481l-.52-.614a.777.777 0 0 1 0-.964l.52-.613a.878.878 0 0 0 .178-.482v-.663c0-.41.335-.745.744-.745h.667c.15 0 .37-.08.486-.181l.61-.52Z"/><defs><linearGradient id="a" x1="3.484" x2="6.383" y1="5.669" y2="5.074" gradientUnits="userSpaceOnUse"><stop stop-color="#0EA5EA"/><stop offset="1" stop-color="#0BD1D1"/></linearGradient><linearGradient id="b" x1="1.316" x2="9.512" y1="8.597" y2="7.473" gradientUnits="userSpaceOnUse"><stop stop-color="#0EA5EA"/><stop offset="1" stop-color="#0BD1D1"/></linearGradient></defs></svg>