<svg xmlns="http://www.w3.org/2000/svg" width="20" height="20" fill="none"><g clip-path="url(#a)"><path fill="#7F92B0" fill-rule="evenodd" d="M6.22.888C7.197.843 7.509.833 9.999.833s2.801.011 3.778.055c.977.045 1.643.2 2.227.426a4.51 4.51 0 0 1 1.623 1.059c.467.457.827 1.01 1.057 1.622.226.583.381 1.25.426 2.225.045.98.055 1.291.055 3.78 0 2.49-.01 2.802-.055 3.78-.044.974-.2 1.641-.426 2.224a4.496 4.496 0 0 1-1.057 1.624 4.494 4.494 0 0 1-1.623 1.057c-.584.227-1.25.382-2.225.427-.979.045-1.29.055-3.78.055-2.49 0-2.802-.011-3.78-.055-.974-.044-1.641-.2-2.224-.427A4.5 4.5 0 0 1 2.37 17.63a4.494 4.494 0 0 1-1.057-1.624c-.226-.583-.381-1.25-.426-2.225C.842 12.801.832 12.49.832 10c0-2.49.01-2.801.055-3.778.044-.977.2-1.644.426-2.227A4.497 4.497 0 0 1 2.37 2.372a4.493 4.493 0 0 1 1.623-1.058c.583-.226 1.25-.38 2.225-.426Zm7.483 1.65c-.967-.044-1.257-.053-3.704-.053-2.448 0-2.738.01-3.704.054-.895.04-1.38.19-1.703.315a2.847 2.847 0 0 0-1.054.685 2.844 2.844 0 0 0-.685 1.054c-.126.324-.275.809-.316 1.703-.044.967-.053 1.257-.053 3.704 0 2.448.009 2.738.053 3.704.04.894.19 1.38.316 1.703.147.397.38.758.685 1.054.296.304.657.538 1.054.685.323.126.808.275 1.703.316.966.044 1.255.053 3.704.053 2.448 0 2.737-.009 3.704-.053.894-.041 1.379-.19 1.702-.316a2.847 2.847 0 0 0 1.054-.685c.305-.296.539-.657.686-1.054.125-.323.274-.809.315-1.703.044-.966.054-1.256.054-3.704 0-2.447-.01-2.737-.054-3.704-.04-.894-.19-1.38-.316-1.703a2.845 2.845 0 0 0-.684-1.054 2.845 2.845 0 0 0-1.055-.685c-.323-.126-.808-.275-1.702-.316ZM8.828 12.826a3.057 3.057 0 1 0 2.201-5.705 3.058 3.058 0 0 0-2.201 5.705ZM6.667 6.668a4.711 4.711 0 1 1 6.663 6.663A4.711 4.711 0 0 1 6.667 6.67Zm9.088-.678a1.114 1.114 0 1 0-1.528-1.62 1.114 1.114 0 0 0 1.528 1.62Z" clip-rule="evenodd"/></g><defs><clipPath id="a"><path fill="#fff" d="M0 0h20v20H0z"/></clipPath></defs></svg>