<svg xmlns="http://www.w3.org/2000/svg" width="20" height="20" fill="none"><path fill="url(#a)" fill-rule="evenodd" d="M.832 2.365A1.532 1.532 0 0 1 2.364.833h15.268a1.531 1.531 0 0 1 1.533 1.532v15.269a1.532 1.532 0 0 1-1.532 1.533H2.363a1.532 1.532 0 0 1-1.531-1.533V2.365Zm7.257 5.458h2.482V9.07c.359-.716 1.275-1.362 2.653-1.362 2.64 0 3.266 1.428 3.266 4.047v4.852h-2.672v-4.255c0-1.492-.358-2.334-1.268-2.334-1.263 0-1.788.908-1.788 2.334v4.255H8.089V7.823Zm-4.584 8.67H6.18V7.709H3.505v8.783Zm3.056-11.65a1.72 1.72 0 1 1-3.437.076 1.72 1.72 0 0 1 3.437-.075Z" clip-rule="evenodd"/><defs><linearGradient id="a" x1="1.916" x2="21.389" y1="19.167" y2="16.496" gradientUnits="userSpaceOnUse"><stop stop-color="#0EA5EA"/><stop offset="1" stop-color="#0BD1D1"/></linearGradient></defs></svg>