<svg xmlns="http://www.w3.org/2000/svg" width="18" height="18" fill="none"><circle cx="9" cy="9" r="9" fill="#D8E6FB"/><g clip-path="url(#a)"><path fill="#0EA5EA" d="M11.918 11.814c.55-.55.908-1.218 1.076-1.923.048-.201-.2-.338-.347-.19l-.005.005a3.072 3.072 0 0 1-4.413-.071 3.065 3.065 0 0 1 .075-4.281c.147-.146.01-.393-.191-.345a4.03 4.03 0 0 0-1.908 1.06 4.043 4.043 0 0 0-.02 5.74 4.05 4.05 0 0 0 5.733.005Z"/></g><defs><clipPath id="a"><path fill="#fff" d="M5 5h8v8H5z"/></clipPath></defs></svg>