<svg xmlns="http://www.w3.org/2000/svg" width="18" height="18" fill="none"><circle cx="9" cy="9" r="9" fill="#D8E6FB"/><g fill="#D69C59" clip-path="url(#a)"><path d="M8.996 6.344a2.657 2.657 0 1 0-.001 5.314 2.657 2.657 0 0 0 0-5.314ZM13.219 8.532h-.625a.469.469 0 0 0 0 .938h.625a.469.469 0 0 0 0-.938ZM8.996 12.125a.469.469 0 0 0-.469.469v.625a.468.468 0 1 0 .937 0v-.625a.47.47 0 0 0-.468-.47ZM5.874 9a.47.47 0 0 0-.469-.468h-.624a.469.469 0 0 0 0 .938h.624A.47.47 0 0 0 5.874 9ZM8.996 5.875a.47.47 0 0 0 .468-.469v-.625a.468.468 0 0 0-.937 0v.625a.47.47 0 0 0 .469.47ZM11.869 6.79l.442-.442a.468.468 0 1 0-.663-.662l-.442.442a.468.468 0 1 0 .663.662ZM11.869 11.211a.47.47 0 0 0-.8.331.467.467 0 0 0 .137.332l.442.442a.47.47 0 0 0 .663 0 .47.47 0 0 0 0-.663l-.442-.442ZM6.123 11.211l-.442.442a.469.469 0 1 0 .662.663l.442-.442a.47.47 0 0 0-.51-.765.47.47 0 0 0-.152.102ZM6.123 6.79a.469.469 0 1 0 .663-.662l-.442-.442a.468.468 0 1 0-.663.662l.442.442Z"/></g><defs><clipPath id="a"><path fill="#fff" d="M4 4h10v10H4z"/></clipPath></defs></svg>