<svg xmlns="http://www.w3.org/2000/svg" width="16" height="16" fill="none"><path fill="#0EA5EA" d="M14.667 5.207v4.06l-1.087-.934c-.52-.446-1.36-.446-1.88 0l-2.773 2.38c-.52.447-1.36.447-1.88 0l-.227-.186c-.473-.414-1.227-.454-1.76-.094l-3.28 2.2-.073.054c-.247-.534-.374-1.167-.374-1.894V5.207c0-2.427 1.447-3.874 3.874-3.874h5.586c2.427 0 3.874 1.447 3.874 3.874Z" opacity=".4"/><path fill="#0EA5EA" d="M6 6.92a1.587 1.587 0 1 0 0-3.173A1.587 1.587 0 0 0 6 6.92ZM14.667 9.267v1.526c0 2.427-1.447 3.874-3.874 3.874H5.207c-1.7 0-2.927-.714-3.5-1.98l.073-.054 3.28-2.2c.533-.36 1.287-.32 1.76.094l.227.186c.52.447 1.36.447 1.88 0l2.773-2.38c.52-.446 1.36-.446 1.88 0l1.087.934Z"/></svg>