<svg xmlns="http://www.w3.org/2000/svg" width="42" height="42" fill="none"><circle cx="21" cy="21" r="21" fill="#0F172A"/><path fill="#0EA5EA" d="M19.86 19.893v5.38a2.4 2.4 0 0 1-2.393 2.394 2.396 2.396 0 0 1-2.393-2.394 2.394 2.394 0 0 1 2.393-2.386c.553 0 1.053.193 1.46.506V20.16l.933-.267ZM26.927 17.88v6.107a2.396 2.396 0 0 1-2.394 2.393 2.4 2.4 0 0 1-2.393-2.393 2.399 2.399 0 0 1 2.393-2.387c.56 0 1.06.193 1.467.513v-3.966l.927-.267Z"/><path fill="#0EA5EA" d="M26.927 16.453v1.427l-8 2.28V17.5c0-.98.593-1.74 1.533-1.993l3.853-1.054c.78-.213 1.44-.14 1.907.22.473.354.707.954.707 1.78Z" opacity=".4"/></svg>