<svg xmlns="http://www.w3.org/2000/svg" width="42" height="42" fill="none"><circle cx="21" cy="21" r="21" fill="#0F172A"/><path fill="#0EA5EA" d="M21.667 15.167h-4c-2.28 0-3.167.886-3.167 3.166v5.334c0 1.533.833 3.166 3.167 3.166h4c2.28 0 3.166-.886 3.166-3.166v-5.334c0-2.28-.886-3.166-3.166-3.166Z" opacity=".4"/><path fill="#0EA5EA" d="M20.667 20.587a1.253 1.253 0 1 0 0-2.507 1.253 1.253 0 0 0 0 2.507ZM27.433 17.113c-.273-.14-.846-.3-1.626.247l-.987.693c.007.094.013.18.013.28v5.334c0 .1-.013.186-.013.28l.987.693c.413.293.773.387 1.06.387.246 0 .44-.067.566-.134.274-.14.734-.52.734-1.473v-4.833c0-.954-.46-1.334-.734-1.474Z"/></svg>