<svg width="171" height="38" viewBox="0 0 171 38" fill="none" xmlns="http://www.w3.org/2000/svg">
<path fill-rule="evenodd" clip-rule="evenodd" d="M9.24661 0.046875C9.23067 0.0726563 9.1463 0.09375 9.05911 0.09375C8.97192 0.09375 8.88942 0.11175 8.87583 0.133781C8.86223 0.155812 8.72878 0.186609 8.5793 0.202266C8.23941 0.237797 8.05912 0.326531 7.84462 0.563953C7.6965 0.727922 7.6763 0.779766 7.6763 0.996281V1.24228L15.1177 8.68364C20.2484 13.8142 22.5896 16.125 22.6569 16.125C22.7239 16.125 23.7112 15.1626 25.795 13.0664C27.4671 11.3842 30.8562 7.97686 33.3261 5.49459C36.6219 2.18241 37.8169 0.953297 37.8169 0.875672C37.8169 0.664172 37.2032 0.1875 36.9309 0.1875C36.8768 0.1875 36.8325 0.166406 36.8325 0.140625C36.8325 0.114844 36.7946 0.09375 36.7482 0.09375C36.7018 0.09375 36.6413 0.07125 36.6137 0.0436875C36.5502 -0.019875 34.5025 0.0162655 34.0669 0.0886874C33.6265 0.161859 33.2348 0.253969 33.1951 0.293719C33.1761 0.312656 33.1327 0.328125 33.0985 0.328125C32.8357 0.328125 32.5658 0.585563 27.7535 5.42541L22.8476 10.3594L22.6565 10.3591C22.4655 10.3588 22.4615 10.3549 17.8274 5.71847C15.24 3.1298 13.1535 1.07812 13.1081 1.07812C13.0634 1.07812 12.9884 1.03055 12.9414 0.972375C12.7902 0.785156 12.4912 0.583359 12.0591 0.376734C11.8271 0.265781 11.6006 0.15675 11.5559 0.13439C11.5111 0.112031 11.2856 0.09375 11.0547 0.09375C10.8239 0.09375 10.6219 0.0726563 10.606 0.046875C10.5889 0.0192656 10.3095 0 9.9263 0C9.54305 0 9.26367 0.0192656 9.24661 0.046875ZM1.31246 0.5025C1.17042 0.529031 0.780425 1.01845 0.554956 1.45312C-0.179153 2.86847 -0.185294 4.61245 0.538643 6.08166C0.727737 6.46538 0.8303 6.59686 1.43686 7.23366C1.81346 7.629 4.56319 10.3848 7.54739 13.3576C11.0477 16.8445 12.9732 18.7951 12.9732 18.8541C12.9732 18.9486 12.5377 19.3927 5.47224 26.5052C3.39628 28.5949 1.51547 30.4945 1.29258 30.7266C0.388081 31.6682 0.0357689 32.684 0.0946907 34.1804C0.140347 35.34 0.493175 36.2852 1.16536 37.0489C1.27641 37.1751 1.3966 37.2656 1.45294 37.2656C1.51922 37.2656 4.42992 34.3777 10.695 28.0956C15.725 23.052 19.8476 18.8944 19.8564 18.8564C19.866 18.8152 17.1872 16.0981 13.2189 12.1241C9.55936 8.45934 5.54827 4.43789 4.30533 3.1875C3.06239 1.93711 1.94658 0.827484 1.82569 0.72164C1.59225 0.517172 1.48317 0.470578 1.31246 0.5025ZM36.7542 7.32422C36.5178 7.52325 25.477 18.5968 25.4273 18.6847C25.2979 18.9136 25.2251 18.8355 30.5774 24.222C33.4149 27.0777 35.9876 29.6777 36.2946 30C36.6016 30.3223 36.901 30.6058 36.9599 30.6301C37.1188 30.6958 37.2691 30.6172 37.4811 30.3577C37.6007 30.2114 37.7112 29.9975 37.7891 29.7617C37.8964 29.4371 37.9106 29.3179 37.9103 28.7477C37.9098 27.7731 37.814 27.3231 37.5126 26.879C37.4496 26.7861 35.6677 24.969 33.5528 22.8408C30.4373 19.7059 29.7075 18.9484 29.7075 18.8498C29.7075 18.7512 30.3508 18.0831 33.0943 15.3325C34.9569 13.465 36.6307 11.8088 36.8138 11.6521C37.2995 11.2363 37.8621 10.3627 37.8633 10.0223C37.8636 9.95292 37.8833 9.88411 37.9071 9.86939C37.9619 9.8355 37.9192 8.47364 37.8563 8.25C37.7594 7.90552 37.4618 7.39603 37.2608 7.23047C37.1368 7.12833 36.9447 7.16391 36.7542 7.32422ZM61.4653 11.2969L57.1997 11.3203L56.9419 11.4433C56.3619 11.7199 55.929 12.1824 55.769 12.6963C55.6793 12.9846 55.6763 13.1424 55.6763 17.5781C55.6763 22.0022 55.6795 22.1724 55.7684 22.4602C55.8862 22.8417 56.2128 23.2545 56.6056 23.5185C57.141 23.8784 56.8475 23.8594 61.8712 23.8594H66.3616L66.6679 23.7441C67.2419 23.528 67.6045 23.1978 67.8783 22.6417L68.0278 22.338L68.0405 17.6762C68.0545 12.4901 68.0688 12.7463 67.7377 12.2475C67.5229 11.9238 67.2166 11.6584 66.8493 11.4776C66.6131 11.3613 66.4691 11.3257 66.1418 11.3025C65.9158 11.2865 63.8114 11.284 61.4653 11.2969ZM41.52 17.5774V23.8594H46.8158H52.1116L52.4115 23.7465C52.5763 23.6844 52.793 23.5818 52.893 23.5185C53.1795 23.3369 53.5128 22.9474 53.6754 22.6042L53.8247 22.2891L53.8385 20.4023C53.8475 19.157 53.8361 18.5156 53.8049 18.5156C53.71 18.5156 53.4093 18.2067 53.3262 18.0239C53.2123 17.7731 53.2139 17.3888 53.3298 17.1616C53.4214 16.9821 53.7168 16.6875 53.8053 16.6875C53.837 16.6875 53.8482 16.0336 53.8388 14.7305L53.8247 12.7734L53.6841 12.4933C53.4858 12.0982 53.0567 11.6766 52.6528 11.48L52.3247 11.3203L46.9224 11.3078L41.52 11.2953V17.5774ZM71.305 11.3819C70.7588 11.5718 70.3228 11.9652 70.0545 12.5103L69.9028 12.8183V17.5781V22.3379L70.0636 22.665C70.2705 23.0861 70.6431 23.4573 71.0747 23.6724L71.4028 23.8359H76.0679H80.7329L81.0601 23.675C81.4264 23.4948 81.8197 23.1491 81.991 22.8569C82.2659 22.3878 82.2573 22.5711 82.2436 17.4576L82.231 12.7734L82.0761 12.4567C81.8713 12.0381 81.5481 11.7218 81.0973 11.499L80.7359 11.3203L76.1396 11.3097C71.8489 11.2997 71.5276 11.3045 71.305 11.3819ZM84.1045 11.3546C84.092 11.3873 84.0873 14.209 84.0939 17.625L84.106 23.8359H84.7856C85.4602 23.8359 85.4669 23.8349 85.6683 23.6983C85.7799 23.6227 85.9381 23.4645 86.0199 23.3468L86.1685 23.1328L86.1919 19.672C86.2146 16.3145 86.218 16.2091 86.3063 16.1446C86.5039 16.0002 86.7767 16.0911 86.9229 16.3499C87.0084 16.5014 87.847 17.7962 90.2687 21.5156C90.6128 22.0441 91.0485 22.7139 91.2369 23.0039C91.4253 23.294 91.6006 23.5312 91.6264 23.5312C91.6523 23.5312 91.7764 23.3783 91.9023 23.1914C92.152 22.8207 95.5106 17.6532 96.0686 16.7812C96.4537 16.1793 96.5502 16.0781 96.7388 16.0781C96.8104 16.0781 96.9137 16.1151 96.9684 16.1602L97.0678 16.2422L97.0791 20.0391L97.0903 23.8359L97.6528 23.85C97.9622 23.8576 98.2823 23.8517 98.3642 23.8367C98.5602 23.8009 98.9558 23.4414 99.0788 23.1873C99.1759 22.9868 99.1763 22.9638 99.1763 17.1406V11.2952L98.0466 11.3077L96.9169 11.3203L96.034 12.7031C95.5485 13.4637 94.9162 14.4551 94.629 14.9062C94.3419 15.3574 93.7489 16.2855 93.3114 16.9688C92.8739 17.652 92.3883 18.4166 92.2322 18.668L91.9484 19.125L91.6366 19.1246L91.3247 19.1242L91.154 18.855C91.0601 18.7071 90.6467 18.0586 90.2351 17.4141C89.8237 16.7695 89.0163 15.5039 88.4412 14.6016C87.866 13.6992 87.1584 12.5918 86.8688 12.1406L86.3422 11.3203L85.2347 11.3077C84.374 11.298 84.1221 11.3084 84.1045 11.3546ZM101.004 17.5789V23.8609L106.43 23.8484L111.856 23.8359L112.221 23.6577C112.895 23.3282 113.363 22.701 113.414 22.0572L113.439 21.75H108.506C102.953 21.75 103.325 21.7742 103.156 21.402C103.08 21.235 103.069 21.0839 103.069 20.2031C103.069 19.3144 103.079 19.1722 103.158 18.9999C103.206 18.8924 103.296 18.7764 103.356 18.7421C103.442 18.6929 104.049 18.6747 106.231 18.6562L108.997 18.6328L109.324 18.4688C109.969 18.1462 110.412 17.5431 110.471 16.9082C110.487 16.7332 110.491 16.5802 110.479 16.5684C110.467 16.5566 108.895 16.5468 106.985 16.5467C103.648 16.5465 103.506 16.543 103.365 16.4569C103.094 16.2913 103.058 16.0994 103.075 14.8793C103.089 13.9175 103.1 13.791 103.179 13.6739C103.228 13.602 103.312 13.5176 103.367 13.4864C103.441 13.4437 104.507 13.4239 107.684 13.4062L111.903 13.3828L112.222 13.2323C112.879 12.9219 113.37 12.2567 113.416 11.6133L113.439 11.2969H107.222H101.004V17.5789ZM115.254 17.5774V23.8594H115.884C116.23 23.8594 116.568 23.8388 116.634 23.8138C116.825 23.7412 117.159 23.4047 117.266 23.178C117.359 22.9802 117.364 22.8936 117.364 21.4458V19.9219H118.859H120.355L122.296 21.8906L124.238 23.8594H125.816C126.685 23.8594 127.395 23.8425 127.395 23.822C127.395 23.7816 125.653 22.0224 124.613 21.0116C123.918 20.3369 123.861 20.231 124.079 20.0271C124.178 19.9344 124.244 19.9275 125.168 19.9134L126.153 19.8984L126.47 19.748C126.887 19.5504 127.258 19.18 127.456 18.7628L127.606 18.4453V15.6094V12.7734L127.451 12.4567C127.246 12.0381 126.923 11.7218 126.472 11.499L126.111 11.3203L120.683 11.3078L115.254 11.2953V17.5774ZM130.879 11.3877C130.549 11.5063 130.145 11.7815 129.949 12.0215C129.859 12.1305 129.718 12.3653 129.634 12.5434L129.481 12.8672V18.3516V23.8359L130.104 23.849C130.807 23.8638 130.91 23.8352 131.213 23.5421C131.512 23.2529 131.565 23.0808 131.566 22.393C131.567 21.705 131.62 21.5209 131.857 21.3762C132.009 21.2835 132.084 21.2816 135.636 21.2814C139.635 21.2813 139.443 21.267 139.631 21.5765C139.715 21.7137 139.723 21.818 139.723 22.793L139.723 23.8594H140.353C140.699 23.8594 141.036 23.8392 141.1 23.8146C141.308 23.7356 141.61 23.4218 141.723 23.1666L141.832 22.9192V18.0176C141.832 12.6669 141.844 12.9124 141.565 12.3571C141.423 12.0745 141.086 11.7335 140.784 11.565C140.284 11.2864 140.485 11.2967 135.601 11.2986C131.35 11.3002 131.109 11.3047 130.879 11.3877ZM143.66 11.3203C143.66 11.3332 143.66 14.1545 143.66 17.5898L143.66 23.8359L144.691 23.8485L145.723 23.8612V19.5946C145.723 15.3906 145.724 15.3268 145.817 15.2344C145.868 15.1828 145.97 15.1406 146.043 15.1406C146.154 15.1406 146.241 15.2193 146.576 15.6211C146.796 15.8853 147.466 16.6711 148.066 17.3672C148.666 18.0633 149.238 18.7277 149.336 18.8438C149.434 18.9598 149.94 19.5504 150.46 20.1562C150.98 20.7621 151.683 21.5848 152.021 21.9844C152.36 22.384 152.743 22.8284 152.871 22.9718C153 23.1154 153.221 23.3741 153.361 23.5469L153.617 23.8609L154.791 23.8485L155.965 23.8359L155.977 17.5664L155.989 11.2969H154.934H153.879V15.5625C153.879 19.7656 153.878 19.8295 153.786 19.9219C153.641 20.0662 153.481 20.0394 153.282 19.8379C153.185 19.7401 152.716 19.1989 152.239 18.6351C151.762 18.0713 150.675 16.7952 149.825 15.7991C148.974 14.8031 148.208 13.9047 148.124 13.8027C148.039 13.7007 147.523 13.0951 146.978 12.457L145.986 11.2969H144.823C144.184 11.2969 143.661 11.3074 143.66 11.3203ZM159.223 11.3413C158.73 11.4942 158.176 11.9587 157.944 12.4145L157.817 12.6649V17.515V22.3652L157.943 22.6318C158.18 23.1339 158.69 23.5726 159.257 23.7622C159.547 23.859 159.589 23.8597 164.859 23.8478L170.168 23.8359V20.2031V16.5703L167.836 16.5582L165.504 16.546V17.1955C165.504 17.7007 165.521 17.8804 165.581 18.0045C165.673 18.1964 165.968 18.5156 166.053 18.5156C166.086 18.5156 166.114 18.5316 166.114 18.5511C166.114 18.6407 166.53 18.7032 167.133 18.7038C167.487 18.7041 167.825 18.7172 167.884 18.7328C168.109 18.7932 168.135 18.9623 168.12 20.2826L168.106 21.5001L167.965 21.6236L167.825 21.747L164.038 21.7485C161.495 21.7495 160.232 21.7341 160.194 21.7015C160.163 21.6749 160.095 21.6239 160.043 21.5881C159.951 21.5242 159.949 21.4631 159.937 17.6574C159.929 15.255 159.942 13.7465 159.97 13.6725C160.075 13.397 159.87 13.4078 165.247 13.3948L170.168 13.3828L170.181 12.3398L170.194 11.2969L164.767 11.3009C161.782 11.3031 159.288 11.3213 159.223 11.3413ZM51.4591 13.4774C51.721 13.6128 51.7388 13.7081 51.7388 14.9766C51.7388 15.9156 51.7256 16.1552 51.6677 16.2672C51.5173 16.5581 51.6771 16.5469 47.6747 16.5467C44.1893 16.5465 44.0215 16.5426 43.8835 16.4585C43.6093 16.2913 43.5825 16.1595 43.5825 14.9797C43.5825 13.7932 43.6082 13.6625 43.8727 13.5012C44.0248 13.4085 44.0996 13.4066 47.6747 13.4064C50.843 13.4062 51.3396 13.4156 51.4591 13.4774ZM65.3586 13.4947C65.6298 13.6178 65.8796 13.9283 65.9431 14.2209C65.9792 14.3877 65.9906 15.4547 65.9802 17.7188C65.9654 20.9678 65.9651 20.9771 65.8626 21.1685C65.7298 21.4166 65.4753 21.6383 65.2518 21.7003C65.0016 21.7698 58.7198 21.7678 58.4653 21.6982C58.1812 21.6204 57.8566 21.2634 57.7907 20.9562C57.7556 20.7924 57.7388 19.6688 57.7388 17.4816C57.7388 14.3018 57.7404 14.2456 57.8366 14.0409C57.9593 13.7799 58.1306 13.6049 58.3716 13.4943C58.5478 13.4135 58.7576 13.4083 61.8638 13.4083C64.9741 13.4083 65.1797 13.4134 65.3586 13.4947ZM79.6325 13.5352C79.8234 13.632 79.9218 13.7215 80.0276 13.8947L80.1685 14.1254L80.1828 17.3635C80.1906 19.1444 80.1841 20.7107 80.1681 20.844C80.1273 21.1864 79.9233 21.4776 79.6177 21.6299L79.3766 21.75L76.1163 21.7497C74.1455 21.7496 72.7911 21.7314 72.6919 21.7038C72.4626 21.64 72.1802 21.3934 72.0775 21.1674C71.9958 20.9875 71.9908 20.7829 71.9898 17.5883C71.9887 13.886 71.9795 14.0167 72.2608 13.7167C72.3303 13.6426 72.4716 13.5428 72.5747 13.4951C72.7516 13.4132 72.9504 13.4083 76.0702 13.4073L79.3782 13.4062L79.6325 13.5352ZM124.868 13.4603C125.117 13.5447 125.274 13.6749 125.414 13.9132L125.543 14.1328L125.559 15.4688C125.569 16.3309 125.556 16.8887 125.522 17.0417C125.46 17.3259 125.257 17.5879 124.988 17.7318L124.793 17.8359L121.338 17.8491C117.521 17.8636 117.644 17.8725 117.458 17.5692C117.365 17.4191 117.363 17.3546 117.375 15.5706L117.387 13.7271L117.562 13.5667L117.737 13.4062H121.223C123.732 13.4062 124.754 13.4214 124.868 13.4603ZM139.025 13.4596C139.286 13.5472 139.492 13.7322 139.611 13.9867L139.722 14.2266L139.723 16.4672C139.723 18.9402 139.728 18.897 139.428 19.08C139.282 19.1687 139.166 19.1715 135.645 19.171C132.855 19.1706 131.986 19.1571 131.899 19.1126C131.838 19.0807 131.743 18.9952 131.689 18.9224C131.593 18.793 131.59 18.7401 131.577 16.5552C131.566 14.8898 131.578 14.267 131.621 14.1109C131.69 13.8595 132.004 13.5252 132.231 13.4596C132.466 13.3919 138.823 13.3919 139.025 13.4596ZM51.4591 18.7274C51.7203 18.8624 51.7388 18.9602 51.7388 20.2031C51.7388 21.1212 51.7255 21.3585 51.6677 21.4703C51.5173 21.7611 51.6748 21.75 47.6974 21.75C44.277 21.75 44.0643 21.7452 43.9136 21.6644C43.6076 21.5002 43.5825 21.3896 43.5825 20.2031C43.5825 19.2693 43.5925 19.128 43.6685 18.9836C43.8493 18.6403 43.6508 18.6564 47.6982 18.6563C50.8453 18.6562 51.3396 18.6656 51.4591 18.7274ZM17.7209 26.2764C13.0852 30.8813 12.9771 30.9927 13.0039 31.1392C13.0376 31.3233 13.1765 31.5394 13.3414 31.6641C13.4476 31.7444 13.5535 31.7601 14.0809 31.774C14.8304 31.7937 15.2927 31.7281 15.6816 31.547C15.9247 31.4337 16.1324 31.2565 16.8741 30.5291C17.368 30.0448 18.2375 29.1954 18.8062 28.6418C20.5216 26.9719 22.3196 25.199 22.3609 25.1367C22.3822 25.1045 22.478 25.0781 22.5736 25.0781C22.7376 25.0781 22.8035 25.1344 23.7314 26.0663C24.2726 26.6099 25.7121 28.0345 26.9303 29.2321C28.6862 30.9584 29.1914 31.4295 29.3678 31.5055C29.4902 31.5582 29.8262 31.6357 30.1145 31.6778C30.5465 31.7409 30.7032 31.745 31.0054 31.701C31.7146 31.5976 32.2363 31.3601 32.2403 31.139C32.2412 31.0883 30.3351 29.1585 27.4708 26.31C23.7125 22.5725 22.6748 21.5652 22.5825 21.5645C22.4893 21.5638 21.4962 22.5263 17.7209 26.2764ZM93.3058 26.7452C93.2352 26.7835 93.1659 26.8618 93.1517 26.9191C93.1375 26.9765 93.1319 27.9727 93.1393 29.1328L93.1528 31.2422L93.2622 31.3956C93.3224 31.48 93.4547 31.5914 93.5563 31.6432C93.7337 31.7337 93.8164 31.7369 95.6574 31.7242L97.5739 31.7109L97.7491 31.5691C98.1088 31.2779 98.0981 31.3559 98.0981 29.0245V26.9459L97.9611 26.8089C97.8792 26.727 97.7746 26.6719 97.701 26.6719C97.5415 26.6719 97.3212 26.7867 97.2813 26.8905C97.2642 26.9353 97.2515 27.7478 97.2533 28.696C97.2559 30.1204 97.2443 30.449 97.1868 30.5867C97.0687 30.8693 96.9566 30.8906 95.5903 30.8906C94.275 30.8906 94.1075 30.8631 94.0197 30.632C93.9918 30.5587 93.9731 29.7945 93.9731 28.7277V26.9459L93.8361 26.8089C93.6823 26.655 93.5101 26.6344 93.3058 26.7452ZM41.6779 26.9235L41.4732 27.1283V29.1666V31.2049L41.58 31.3635C41.6388 31.4506 41.7706 31.5696 41.873 31.6277L42.0591 31.7333L44.2388 31.7221L46.4185 31.7109V30.2578V28.8047H45.481H44.5435L44.53 29.0625C44.5181 29.2888 44.5331 29.3401 44.6521 29.4825C44.7806 29.636 44.8062 29.6456 45.1344 29.6635C45.325 29.6738 45.5074 29.7037 45.5396 29.7297C45.6192 29.7941 45.6212 30.7551 45.5419 30.8344C45.5005 30.8758 45.0875 30.8906 43.9749 30.8906C42.6641 30.8906 42.4545 30.8809 42.3905 30.817C42.3266 30.753 42.317 30.5422 42.3176 29.2115C42.318 28.369 42.335 27.6535 42.3553 27.6216C42.3834 27.5772 42.8663 27.5606 44.4053 27.5513L46.4185 27.5391L46.432 27.1289L46.4456 26.7188H44.1641H41.8827L41.6779 26.9235ZM58.5469 29.2148L58.5591 31.7109L58.8235 31.7249C59.0482 31.7367 59.108 31.7215 59.2219 31.6236C59.3554 31.509 59.3561 31.5054 59.3794 30.8363L59.4028 30.1641L59.9856 30.1508L60.5684 30.1376L61.367 30.936L62.1656 31.7344H62.7882C63.1305 31.7344 63.4107 31.7169 63.4107 31.6957C63.4107 31.6744 63.1048 31.3565 62.731 30.9892C62.3571 30.6219 62.0513 30.2917 62.0513 30.2553C62.0513 30.1722 62.1666 30.1477 62.6372 30.1307C63.0756 30.1149 63.2589 30.0162 63.414 29.7122C63.5031 29.5376 63.5081 29.454 63.495 28.3601C63.4794 27.0629 63.4792 27.0619 63.1299 26.8242L62.9749 26.7188H60.7549H58.5348L58.5469 29.2148ZM76.3441 26.8256C76.2569 26.8844 76.1381 27.0162 76.0801 27.1186C75.9757 27.303 75.9747 27.3222 75.9739 29.1933C75.9732 30.9873 75.9778 31.091 76.0665 31.2648C76.1178 31.3654 76.2374 31.5069 76.3324 31.5793L76.5049 31.7109H78.4573H80.4097L80.5998 31.5851C80.7143 31.5093 80.8294 31.3777 80.8894 31.2539C80.9855 31.0553 80.9888 30.9878 80.9888 29.2031C80.9888 27.4223 80.9853 27.3506 80.89 27.1537C80.8357 27.0415 80.7148 26.8977 80.6213 26.8342L80.4514 26.7188H78.477H76.5026L76.3441 26.8256ZM110.192 29.1974C110.192 31.3472 110.201 31.6838 110.262 31.7346C110.308 31.7724 110.419 31.7849 110.576 31.7698C110.774 31.7508 110.844 31.7188 110.951 31.599C111.081 31.4529 111.083 31.4461 111.083 30.8196V30.1875L112.829 30.1868C114.552 30.186 114.577 30.1846 114.761 30.0805C114.863 30.0225 114.995 29.9038 115.054 29.8166C115.158 29.6616 115.161 29.6304 115.161 28.4336C115.161 27.213 115.16 27.2087 115.046 27.041C114.824 26.714 114.863 26.7188 112.4 26.7188H110.192V29.1974ZM62.5265 27.652C62.6315 27.7368 62.638 27.7747 62.6525 28.3785L62.6679 29.0156L62.5272 29.1562L62.3866 29.2969H60.956C59.5308 29.2969 59.5251 29.2965 59.4524 29.1927C59.3945 29.1102 59.3794 28.9488 59.3794 28.4162C59.3794 28.0424 59.401 27.7036 59.4279 27.6532C59.4743 27.5665 59.5411 27.5625 60.9462 27.5625C62.3227 27.5625 62.4229 27.5682 62.5265 27.652ZM79.9897 27.6644L80.0981 27.7664V29.2031V30.6399L79.9773 30.7536C79.8565 30.8671 79.8558 30.8672 78.6062 30.8815C77.2477 30.8971 77.092 30.8845 76.9549 30.7474C76.8686 30.661 76.8638 30.5798 76.8638 29.2031C76.8638 27.8125 76.8678 27.746 76.9575 27.6562C77.0471 27.5666 77.1138 27.5625 78.4662 27.5625C79.8544 27.5625 79.8832 27.5644 79.9897 27.6644ZM114.209 27.6755C114.336 27.7851 114.341 27.8048 114.356 28.3184C114.377 28.9855 114.324 29.1852 114.104 29.2771C113.859 29.3796 111.334 29.3741 111.187 29.2708C111.087 29.2007 111.083 29.169 111.083 28.4708C111.083 28.0593 111.104 27.7045 111.131 27.6532C111.177 27.5665 111.244 27.5625 112.628 27.5625H114.077L114.209 27.6755Z" fill="white"/>
</svg>
