<svg xmlns="http://www.w3.org/2000/svg" width="32" height="32" fill="none"><path fill="#0EA5EA" d="M6.667 20a4 4 0 1 1 0-8H6.8a7.44 7.44 0 0 1-.133-1.333A6.667 6.667 0 0 1 19.093 7.36a4 4 0 0 1 2.24-.693 4 4 0 0 1 4 4c-.005.456-.09.907-.253 1.333h.253a4 4 0 1 1 0 8H6.667Zm0-3.213h10.666l-4.386-4.4a1.332 1.332 0 0 0-1.894 0l-4.387 4.4Z" opacity=".3"/><path fill="#0EA5EA" d="M22.667 23.213V16A1.333 1.333 0 1 0 20 16v7.213h2.667Z"/><path fill="#0EA5EA" d="M16 23.213h10.667l-4.387 4.4a1.333 1.333 0 0 1-1.893 0L16 23.213Z" opacity=".3"/><path fill="#0EA5EA" d="M10.666 16.787V24a1.333 1.333 0 0 0 2.667 0v-7.213h-2.667Z"/></svg>