<svg xmlns="http://www.w3.org/2000/svg" width="20" height="20" fill="none"><g clip-path="url(#a)"><path fill="url(#b)" d="m19.038 8.88-1.296-1.295c-.307-.308-.56-.916-.56-1.351V4.4c0-.871-.711-1.583-1.582-1.584h-1.834c-.435 0-1.043-.252-1.351-.56L11.119.962a1.588 1.588 0 0 0-2.239 0L7.585 2.258c-.308.308-.917.56-1.352.56H4.401c-.87 0-1.584.712-1.584 1.583v1.833c0 .434-.252 1.043-.56 1.35L.963 8.88a1.589 1.589 0 0 0 0 2.24l1.296 1.296c.308.308.56.917.56 1.351V15.6c0 .87.712 1.583 1.583 1.583h1.832c.436 0 1.044.252 1.352.56l1.295 1.296a1.59 1.59 0 0 0 2.24 0l1.295-1.296c.308-.308.916-.56 1.352-.56H15.6c.87 0 1.583-.713 1.583-1.583v-1.833c0-.436.252-1.043.56-1.35l1.295-1.296a1.59 1.59 0 0 0 0-2.24ZM8.743 13.563 5.25 10.069l1.12-1.12 2.373 2.375 4.887-4.886 1.12 1.119-6.007 6.006Z"/></g><defs><linearGradient id="b" x1="1.623" x2="21.804" y1="19.5" y2="16.733" gradientUnits="userSpaceOnUse"><stop stop-color="#0EA5EA"/><stop offset="1" stop-color="#0BD1D1"/></linearGradient><clipPath id="a"><path fill="#fff" d="M.5.5h19v19H.5z"/></clipPath></defs></svg>