<svg xmlns="http://www.w3.org/2000/svg" width="32" height="32" fill="none"><path fill="#0EA5EA" d="M22.666 10.667V4H9.333v6.667a1.333 1.333 0 0 0 .387.946L14.12 16l-4.4 4.387a1.333 1.333 0 0 0-.387.946V28h13.333v-6.667a1.334 1.334 0 0 0-.386-.946L17.88 16l4.4-4.387a1.333 1.333 0 0 0 .386-.946Z" opacity=".3"/><path fill="#0EA5EA" d="M24 5.333H8a1.333 1.333 0 0 1 0-2.666h16a1.333 1.333 0 1 1 0 2.666Zm0 21.334h-4V24l-3.053-3.053a1.332 1.332 0 0 0-1.894 0L12 24v2.667H8a1.333 1.333 0 1 0 0 2.666h16a1.333 1.333 0 1 0 0-2.666Zm-11.454-16 2.507 2.506a1.332 1.332 0 0 0 1.893 0l2.507-2.506h-6.906Z"/></svg>