<svg xmlns="http://www.w3.org/2000/svg" width="57" height="57" fill="none"><g fill="#222F43" clip-path="url(#a)"><path d="m32.967 33.119 4.603 3.007c.548.358.89.855 1.024 1.492.134.636.023 1.23-.333 1.78l-.427.662c-.944 1.46-2.263 2.37-3.959 2.732-1.695.362-3.268.068-4.72-.88l-1.316-.86a1.502 1.502 0 0 0-1.178-.211c-.43.091-.76.316-.991.674l-1.71 2.645a1.524 1.524 0 0 0-.21 1.185c.091.432.314.764.67.997l1.316.859a12.19 12.19 0 0 0 4.62 1.828c1.655.288 3.262.265 4.822-.068 1.56-.332 3.037-.968 4.433-1.907a12.257 12.257 0 0 0 3.483-3.558l9.401-14.544c.713-1.103.934-2.29.666-3.562-.269-1.273-.952-2.267-2.047-2.983l-7.892-5.156c-1.096-.716-2.277-.939-3.542-.669-1.266.27-2.255.956-2.967 2.059l-5.128 7.933c-.712 1.102-.934 2.289-.665 3.562.269 1.272.951 2.267 2.047 2.983ZM12.506 18.106c.269 1.273.95 2.267 2.047 2.983l4.603 3.007c.548.358.89.856 1.024 1.492a2.29 2.29 0 0 1-.333 1.78l-.427.661c-.944 1.46-2.264 2.371-3.959 2.733-1.694.362-3.268.069-4.72-.88l-1.316-.86a1.501 1.501 0 0 0-1.178-.211c-.43.092-.76.316-.992.674l-1.71 2.645a1.524 1.524 0 0 0-.21 1.185c.092.431.315.764.672.997l1.314.859A12.192 12.192 0 0 0 11.942 37c1.655.287 3.262.264 4.822-.068 1.56-.333 3.038-.968 4.434-1.908a12.259 12.259 0 0 0 3.483-3.557l9.4-14.545c.713-1.102.934-2.29.666-3.562-.268-1.272-.95-2.266-2.047-2.982L24.81 5.221c-1.096-.716-2.277-.939-3.542-.669-1.267.27-2.255.956-2.967 2.059l-5.128 7.933c-.712 1.102-.934 2.289-.666 3.561Z"/></g><defs><clipPath id="a"><path fill="#fff" d="M34.548 56.72.353 34.38 22.573 0l34.195 22.34z"/></clipPath></defs></svg>