<svg xmlns="http://www.w3.org/2000/svg" width="32" height="32" fill="none"><path fill="#0EA5EA" d="M17.333 8.12a8 8 0 0 1 6.16 10.667l3.294 1.906A1.333 1.333 0 0 0 28.72 20c.413-1.293.62-2.643.613-4A13.333 13.333 0 0 0 18.947 3a1.333 1.333 0 0 0-1.614 1.333V8.12Z"/><path fill="#0EA5EA" d="M25.44 23a1.333 1.333 0 0 1 .333 2.053 13.333 13.333 0 0 1-19.546 0A1.333 1.333 0 0 1 6.56 23l3.28-1.907a8 8 0 0 0 12.32 0L25.44 23ZM8.507 18.787a8 8 0 0 1 6.16-10.667V4.307a1.333 1.333 0 0 0-1.614-1.334A13.333 13.333 0 0 0 2.667 16c-.007 1.357.2 2.707.613 4a1.333 1.333 0 0 0 1.933.733l3.294-1.946Z" opacity=".3"/></svg>