<svg xmlns="http://www.w3.org/2000/svg" width="32" height="32" fill="none"><path fill="#0EA5EA" d="M5.4 20.267c5.72-9.907 12.707-15.92 22.507-17.6a1.227 1.227 0 0 1 1.426 1.426c-1.68 9.8-7.693 16.787-17.6 22.574l-6.333-6.4Zm-.307 2.853-1.586 4.147a.947.947 0 0 0 1.226 1.226l4.147-1.586-3.787-3.787ZM22 8a2 2 0 1 0 0 4 2 2 0 0 0 0-4Z" opacity=".3"/><path fill="#0EA5EA" d="M5.4 20.267 3 17.853a1.12 1.12 0 0 1 .24-1.773l8.96-5.027a46.24 46.24 0 0 0-6.8 9.214Zm6.333 6.4 2.414 2.4a1.12 1.12 0 0 0 1.773-.24l5.027-8.96a46.243 46.243 0 0 1-9.214 6.8Zm-2.4-2.414 7.4-7.4a1.16 1.16 0 0 0-1.64-1.626l-7.346 7.44 1.586 1.586Z"/></svg>