<svg xmlns="http://www.w3.org/2000/svg" width="40" height="40" fill="none"><path fill="url(#a)" d="M35 20.707v-2.374a15 15 0 1 0-30 0v2.374a8.334 8.334 0 0 0 3.333 15.96h3.333V20H8.333v-1.667a11.667 11.667 0 1 1 23.333 0V20h-3.333v13.333h-6.667v3.334h10A8.333 8.333 0 0 0 35 20.707ZM8.332 33.333a5 5 0 0 1 0-10v10Zm23.333 0v-10a5 5 0 0 1 0 10Z"/><defs><linearGradient id="a" x1="2.386" x2="44.481" y1="36.667" y2="29.748" gradientUnits="userSpaceOnUse"><stop stop-color="#0EA5EA"/><stop offset="1" stop-color="#0BD1D1"/></linearGradient></defs></svg>