<svg xmlns="http://www.w3.org/2000/svg" width="40" height="40" fill="none"><g clip-path="url(#a)"><path fill="url(#b)" d="m20 40.013-1.167-1C17.225 37.667 3.182 25.538 3.182 16.667a16.818 16.818 0 0 1 33.636 0c0 8.871-14.043 21-15.645 22.353L20 40.013Zm0-36.528A13.197 13.197 0 0 0 6.818 16.666c0 5.574 8.64 14.477 13.182 18.552 4.542-4.077 13.182-12.985 13.182-18.552A13.196 13.196 0 0 0 20 3.486Z"/><path fill="url(#c)" d="M20 23.333A6.667 6.667 0 1 1 20 10a6.667 6.667 0 0 1 0 13.333Zm0-10A3.333 3.333 0 1 0 20 20a3.333 3.333 0 0 0 0-6.666Z"/></g><defs><linearGradient id="b" x1="5.17" x2="41.096" y1="40.013" y2="35.887" gradientUnits="userSpaceOnUse"><stop stop-color="#0EA5EA"/><stop offset="1" stop-color="#0BD1D1"/></linearGradient><linearGradient id="c" x1="14.121" x2="28.284" y1="23.333" y2="21.391" gradientUnits="userSpaceOnUse"><stop stop-color="#0EA5EA"/><stop offset="1" stop-color="#0BD1D1"/></linearGradient><clipPath id="a"><path fill="#fff" d="M0 0h40v40H0z"/></clipPath></defs></svg>