<svg xmlns="http://www.w3.org/2000/svg" width="40" height="40" fill="none"><g clip-path="url(#a)"><path fill="url(#b)" d="M2.408 11.115a3.333 3.333 0 0 0-1.442 5.562l5.687 5.68v10.977H17.64l5.725 5.716a3.304 3.304 0 0 0 3.197.87 3.296 3.296 0 0 0 2.367-2.298L39.986.035 2.408 11.115Zm.926 3.205 28.38-8.367L9.99 27.643v-6.666L3.334 14.32Zm22.4 22.373L19.023 30h-6.667L34.078 8.297l-8.344 28.396Z"/></g><defs><linearGradient id="b" x1="2.355" x2="44.837" y1="40.03" y2="34.204" gradientUnits="userSpaceOnUse"><stop stop-color="#0EA5EA"/><stop offset="1" stop-color="#0BD1D1"/></linearGradient><clipPath id="a"><path fill="#fff" d="M0 0h40v40H0z"/></clipPath></defs></svg>