<svg xmlns="http://www.w3.org/2000/svg" width="36" height="31" fill="none"><path fill="#0EA5EA" d="M26.951 1.673v7.235l-8.984 5.019V3.872l6.46-3.547A1.724 1.724 0 0 1 26.08.308c.254.136.468.333.62.572.152.239.239.512.25.793Z"/><path fill="#0EA5EA" d="M8.984 1.673v7.235l8.983 5.019V3.872L11.51.325A1.724 1.724 0 0 0 9.854.308a1.662 1.662 0 0 0-.62.572c-.153.239-.239.512-.25.793Z" opacity=".3"/><path fill="#0EA5EA" d="m25.15 30.078-6.28-3.59.1-10.29 8.73 4.99-.126 7.367A1.725 1.725 0 0 1 26.767 30c-.243.154-.52.241-.803.255a1.597 1.597 0 0 1-.813-.177Z"/><path fill="#0EA5EA" d="m34.068 14.48-6.282-3.591-8.815 5.309 8.73 4.99 6.284-3.847a1.725 1.725 0 0 0 .836-1.429 1.662 1.662 0 0 0-.189-.822 1.596 1.596 0 0 0-.564-.61ZM10.277 30.078l6.282-3.59-.102-10.29-8.73 4.99.127 7.367A1.724 1.724 0 0 0 8.66 30c.243.154.52.241.803.255.284.014.564-.047.813-.177Z" opacity=".3"/><path fill="#0EA5EA" d="m1.36 14.48 6.282-3.591 8.815 5.309-8.73 4.99-6.284-3.847a1.725 1.725 0 0 1-.836-1.429c-.008-.288.057-.57.189-.822.132-.25.326-.461.564-.61Z"/></svg>