<svg xmlns="http://www.w3.org/2000/svg" width="116" height="36" fill="none"><path fill="#0EA5EA" d="M26.951 3.673v7.235l-8.984 5.019V5.872l6.46-3.547a1.724 1.724 0 0 1 1.654-.017c.254.136.468.333.62.572.152.239.239.512.25.793Z"/><path fill="#0EA5EA" d="M8.984 3.673v7.235l8.983 5.019V5.872L11.51 2.325a1.724 1.724 0 0 0-1.655-.017 1.662 1.662 0 0 0-.62.572c-.153.239-.239.512-.25.793Z" opacity=".3"/><path fill="#0EA5EA" d="m25.15 32.078-6.28-3.59.1-10.29 8.73 4.99-.126 7.367a1.725 1.725 0 0 1-.807 1.446c-.243.153-.52.24-.803.254a1.597 1.597 0 0 1-.813-.177Z"/><path fill="#0EA5EA" d="m34.068 16.48-6.282-3.591-8.815 5.309 8.73 4.99 6.284-3.847a1.725 1.725 0 0 0 .836-1.429 1.662 1.662 0 0 0-.189-.822 1.596 1.596 0 0 0-.564-.61ZM10.277 32.078l6.282-3.59-.102-10.29-8.73 4.99.127 7.367a1.724 1.724 0 0 0 .807 1.446c.243.153.52.24.803.254.284.014.564-.047.813-.177Z" opacity=".3"/><path fill="#0EA5EA" d="m1.36 16.48 6.282-3.591 8.815 5.309-8.73 4.99-6.284-3.847a1.725 1.725 0 0 1-.836-1.429c-.008-.288.057-.57.189-.822.132-.25.326-.461.564-.61Z"/><path fill="#D8E6FB" d="M54.946 14.774a2.79 2.79 0 0 0-.417-.946 2.598 2.598 0 0 0-.711-.701 2.919 2.919 0 0 0-.976-.438 4.512 4.512 0 0 0-1.21-.152c-.95 0-1.76.227-2.43.681-.665.454-1.173 1.108-1.526 1.962-.345.855-.518 1.885-.518 3.091 0 1.22.166 2.264.498 3.132.332.868.827 1.532 1.485 1.993.657.46 1.474.691 2.45.691.86 0 1.576-.125 2.145-.376.577-.25 1.007-.607 1.292-1.068.284-.46.427-1.003.427-1.626l.976.101h-4.759v-4.026h9.232v2.888c0 1.897-.403 3.52-1.21 4.87a8.014 8.014 0 0 1-3.314 3.09c-1.403.712-3.013 1.068-4.83 1.068-2.026 0-3.806-.43-5.338-1.291-1.532-.86-2.728-2.088-3.589-3.68-.854-1.594-1.28-3.488-1.28-5.684 0-1.722.26-3.247.782-4.576.529-1.328 1.26-2.45 2.196-3.365a9.283 9.283 0 0 1 3.244-2.085c1.227-.474 2.541-.711 3.945-.711 1.233 0 2.379.176 3.436.528a8.943 8.943 0 0 1 2.817 1.485 7.711 7.711 0 0 1 1.982 2.267c.502.875.807 1.834.915 2.878h-5.714Zm16.159 14.234c-1.668 0-3.105-.318-4.311-.956a6.697 6.697 0 0 1-2.776-2.765c-.644-1.207-.966-2.65-.966-4.331 0-1.614.326-3.024.976-4.23a6.975 6.975 0 0 1 2.756-2.816c1.186-.672 2.586-1.007 4.199-1.007 1.18 0 2.247.183 3.203.549a6.711 6.711 0 0 1 2.45 1.596c.678.692 1.2 1.532 1.566 2.522.366.99.549 2.104.549 3.345v1.301h-13.95v-3.09h8.785a2.153 2.153 0 0 0-.346-1.18 2.202 2.202 0 0 0-.884-.803 2.602 2.602 0 0 0-1.251-.295 2.68 2.68 0 0 0-1.25.295c-.38.19-.685.454-.916.793a2.235 2.235 0 0 0-.355 1.19v3.334c0 .502.105.95.315 1.342.21.394.511.702.905.926.393.223.867.335 1.423.335.386 0 .739-.054 1.057-.162.326-.109.604-.265.834-.468.23-.21.4-.461.509-.753h5.124c-.176 1.085-.593 2.027-1.25 2.827-.658.793-1.53 1.41-2.614 1.85-1.077.434-2.338.651-3.782.651Zm15.549-9.07v8.786H81.04V13.106h5.328v2.97h.163a4.424 4.424 0 0 1 1.79-2.33c.86-.562 1.863-.843 3.009-.843 1.105 0 2.064.254 2.877.762a5.066 5.066 0 0 1 1.901 2.075c.455.88.678 1.887.672 3.02v9.964h-5.613v-8.785c.007-.773-.19-1.38-.59-1.82-.393-.44-.942-.661-1.647-.661-.46 0-.864.102-1.21.305-.339.196-.6.481-.783.854-.183.366-.278.807-.284 1.322Zm13.06 8.786v-3.091l6.833-8.175v-.081h-6.59v-4.27h13.219v3.416l-6.223 7.849v.081h6.467v4.27H99.714Z"/></svg>