<svg xmlns="http://www.w3.org/2000/svg" width="55" height="55" fill="none"><path fill="url(#a)" d="M22.096 12.881c1.375-.577 1.952-2.218 1.33-3.55l-2.173-4.57c-.622-1.286-2.13-1.863-3.461-1.286-3.772 1.598-7.01 3.683-9.584 6.212-3.15 2.972-5.28 6.389-6.433 10.16C.62 23.663 0 28.854 0 35.465v13.621a2.67 2.67 0 0 0 2.662 2.662H20.1a2.67 2.67 0 0 0 2.662-2.662V31.65a2.67 2.67 0 0 0-2.662-2.662h-8.341c.089-4.482 1.153-8.075 3.106-10.782 1.597-2.173 3.993-3.948 7.232-5.324Z"/><path fill="url(#b)" d="M53.42 12.881c1.375-.577 1.952-2.218 1.331-3.55l-2.174-4.524c-.621-1.287-2.13-1.864-3.46-1.287-3.728 1.597-6.923 3.682-9.54 6.167-3.15 3.017-5.324 6.434-6.478 10.205-1.154 3.726-1.73 8.918-1.73 15.573v13.622a2.67 2.67 0 0 0 2.662 2.662h17.437a2.67 2.67 0 0 0 2.662-2.662V31.65a2.67 2.67 0 0 0-2.662-2.662h-8.386c.089-4.482 1.154-8.076 3.106-10.783 1.597-2.173 3.993-3.948 7.232-5.324Z"/><defs><linearGradient id="a" x1="1.4" x2="26.906" y1="51.748" y2="50.041" gradientUnits="userSpaceOnUse"><stop stop-color="#0EA5EA"/><stop offset="1" stop-color="#0BD1D1"/></linearGradient><linearGradient id="b" x1="32.766" x2="58.224" y1="51.749" y2="50.046" gradientUnits="userSpaceOnUse"><stop stop-color="#0EA5EA"/><stop offset="1" stop-color="#0BD1D1"/></linearGradient></defs></svg>