<svg xmlns="http://www.w3.org/2000/svg" width="18" height="18" fill="none"><g clip-path="url(#a)"><path fill="#98A2B3" fill-rule="evenodd" d="M9.25.5a8.75 8.75 0 0 0-3.512 16.764c-.025-.61-.005-1.345.15-2.01.17-.71 1.126-4.766 1.126-4.766s-.278-.56-.278-1.385c0-1.297.752-2.265 1.687-2.265.795 0 1.18.598 1.18 1.314 0 .8-.51 1.996-.772 3.104-.22.93.465 1.686 1.38 1.686 1.658 0 2.774-2.13 2.774-4.652 0-1.917-1.29-3.353-3.64-3.353-2.654 0-4.307 1.98-4.307 4.19 0 .763.224 1.3.576 1.716.163.192.184.268.126.488-.042.16-.138.549-.178.702-.06.221-.238.302-.438.22-1.223-.5-1.792-1.838-1.792-3.344 0-2.485 2.096-5.467 6.253-5.467 3.34 0 5.54 2.42 5.54 5.013 0 3.433-1.908 5.997-4.722 5.997-.944 0-1.833-.51-2.137-1.09 0 0-.509 2.016-.616 2.405-.185.674-.548 1.35-.88 1.874a8.75 8.75 0 0 0 11.229-8.39A8.75 8.75 0 0 0 9.248.5Z" clip-rule="evenodd"/></g><defs><clipPath id="a"><path fill="#fff" d="M.499.5h17.5V18H.499z"/></clipPath></defs></svg>