<svg xmlns="http://www.w3.org/2000/svg" width="22" height="18" fill="none"><g clip-path="url(#a)"><path fill="#98A2B3" fill-rule="evenodd" d="M21.499 2.572a8.415 8.415 0 0 1-2.474.695A4.408 4.408 0 0 0 20.92.824a8.485 8.485 0 0 1-2.738 1.07A4.249 4.249 0 0 0 15.038.502C12.66.5 10.73 2.479 10.73 4.918c0 .346.037.683.111 1.006-3.58-.184-6.754-1.941-8.88-4.617a4.498 4.498 0 0 0-.584 2.223c0 1.532.76 2.885 1.917 3.677a4.23 4.23 0 0 1-1.952-.551v.054c0 2.141 1.485 3.927 3.457 4.332a4.106 4.106 0 0 1-1.135.155c-.278 0-.549-.026-.811-.078.548 1.754 2.138 3.032 4.024 3.066A8.507 8.507 0 0 1 .5 16.017 11.995 11.995 0 0 0 7.104 18c7.925 0 12.258-6.73 12.258-12.569 0-.192-.004-.384-.011-.572a8.842 8.842 0 0 0 2.148-2.287Z" clip-rule="evenodd"/></g><defs><clipPath id="a"><path fill="#fff" d="M.5.5h20.999V18h-21z"/></clipPath></defs></svg>