<svg xmlns="http://www.w3.org/2000/svg" width="385" height="360" fill="none"><g clip-path="url(#a)"><path fill="#EBEBEB" d="m55.3 100.61 1.62 3.27 3.61.53-2.61 2.55.62 3.6-3.24-1.7-3.23 1.7.62-3.6-2.62-2.55 3.62-.53 1.61-3.27Z"/><path fill="#F5F5F5" d="m378.95 254.84 1.62 3.28 3.62.52-2.62 2.56.62 3.6-3.24-1.7-3.23 1.7.62-3.6-2.62-2.56 3.62-.52 1.61-3.28ZM314.85 349.93l1.61 3.27 3.62.53-2.62 2.55.62 3.6-3.23-1.7-3.24 1.7.62-3.6-2.61-2.55 3.61-.53 1.62-3.27Z"/><path fill="#EBEBEB" d="m168.19 42.51.6 1.22 1.35.2a.398.398 0 0 1 .335.498.395.395 0 0 1-.115.192l-1 1 .23 1.34a.407.407 0 0 1-.163.395.41.41 0 0 1-.427.035l-1.2-.64-1.2.64a.417.417 0 0 1-.427-.037.423.423 0 0 1-.173-.393l.23-1.34-1-1a.4.4 0 0 1 .23-.69l1.34-.2.6-1.22a.412.412 0 0 1 .644-.217.41.41 0 0 1 .146.217Z"/><path fill="#F5F5F5" d="m3 334.37.61 1.21 1.34.2a.409.409 0 0 1 .22.7l-1 .94.23 1.34a.41.41 0 0 1-.59.43l-1.2-.63-1.2.63a.412.412 0 0 1-.564-.209.41.41 0 0 1-.026-.221l.22-1.34-1-.94a.41.41 0 0 1 .23-.7l1.34-.2.6-1.21a.397.397 0 0 1 .395-.337.399.399 0 0 1 .395.337Z"/><path fill="#EBEBEB" d="m30 29.66.6 1.22 1.35.19a.41.41 0 0 1 .22.7l-1 .95.23 1.33a.4.4 0 0 1-.59.43l-1.2-.63-1.2.63a.41.41 0 0 1-.6-.43l.23-1.33-1-.95a.41.41 0 0 1 .23-.7l1.34-.19.6-1.22a.41.41 0 0 1 .79 0ZM28.38 270.68a1.331 1.331 0 0 1-1.59 1.304 1.328 1.328 0 0 1-.969-1.813 1.33 1.33 0 0 1 1.229-.821 1.341 1.341 0 0 1 1.33 1.33ZM217.92 104.25a1.332 1.332 0 0 1-1.584 1.316 1.334 1.334 0 0 1-1.05-1.043 1.335 1.335 0 0 1 .564-1.368c.219-.147.476-.225.74-.225a1.32 1.32 0 0 1 1.33 1.32Z"/><path fill="#F5F5F5" d="M149 30.76a1.33 1.33 0 1 1-1.33-1.33 1.337 1.337 0 0 1 1.33 1.33Z"/><path fill="#F0F0F0" d="M151.063 354.898a7.35 7.35 0 1 0-3.377-14.306 7.35 7.35 0 0 0 3.377 14.306Z"/><path fill="#E6E6E6" d="M146.85 343.45a7.09 7.09 0 0 0-4.19 1.36 7.339 7.339 0 0 0 10.5 9.23 7.166 7.166 0 0 0-2.767-9.645 7.178 7.178 0 0 0-3.543-.935v-.01Z"/><path fill="#0EA5EA" d="M46.94 78.24c-15.32 40.81-2.1 95.9 21.58 139 61.001 111.9 209.441 48.63 206.881-2.19 3.48-48.48-40.12-62.88-54.91-90.06-82.82-153.42-161.22-81.16-173.55-46.75Z"/><path fill="#fff" d="M46.94 78.24c-15.32 40.81-2.1 95.9 21.58 139 61.001 111.9 209.441 48.63 206.881-2.19 3.48-48.48-40.12-62.88-54.91-90.06-82.82-153.42-161.22-81.16-173.55-46.75Z" opacity=".9"/><path fill="url(#b)" d="M89.93 220H29.07v-27.47l60.86-72.34H119v73.9h15.09V220H119v22.47H89.93V220Zm0-25.92v-37.83l-32.16 37.84 32.16-.01Z"/><path fill="url(#c)" d="M144.55 181.87c0-22.86 4.114-38.86 12.34-48 8.227-9.14 20.764-13.707 37.61-13.7 8.087 0 14.73 1 19.93 3a36.785 36.785 0 0 1 12.71 7.83 41.563 41.563 0 0 1 7.75 10.09 52.382 52.382 0 0 1 4.55 12.34 115.33 115.33 0 0 1 3.36 28.05c0 21.813-3.69 37.78-11.07 47.9-7.38 10.12-20.093 15.177-38.14 15.17-10.113 0-18.286-1.613-24.52-4.84a39.761 39.761 0 0 1-15.33-14.19c-2.9-4.433-5.156-10.49-6.77-18.17a124.334 124.334 0 0 1-2.42-25.48Zm33.13.08c0 15.333 1.354 25.79 4.06 31.37 2.707 5.58 6.63 8.383 11.77 8.41a12.34 12.34 0 0 0 8.82-3.57c2.487-2.38 4.317-6.14 5.49-11.28 1.174-5.14 1.764-13.14 1.77-24 0-15.96-1.353-26.69-4.06-32.19-2.706-5.5-6.766-8.247-12.18-8.24-5.52 0-9.52 2.803-12 8.41-2.48 5.607-3.703 15.987-3.67 31.14v-.05Z"/><path fill="url(#d)" d="M314.001 220h-60.86v-27.47l60.86-72.34h29.12v73.9h15.08V220h-15.09v22.47h-29.11V220Zm0-25.92v-37.83l-32.15 37.84 32.15-.01Z"/><g fill="#0EA5EA" opacity=".3"><path d="M143.2 78a1.873 1.873 0 0 1-1.154 1.728 1.873 1.873 0 0 1-2.55-1.363 1.876 1.876 0 0 1 .795-1.92A1.87 1.87 0 0 1 143.2 78ZM15.21 149.81a1.32 1.32 0 1 0 0-2.64 1.32 1.32 0 0 0 0 2.64ZM233.299 342.58a1.89 1.89 0 1 0 0-3.78 1.89 1.89 0 0 0 0 3.78ZM278.75 265.68a1.32 1.32 0 1 0 0-2.64 1.32 1.32 0 0 0 0 2.64ZM366.419 28a1.32 1.32 0 1 1-2.639.002 1.32 1.32 0 0 1 2.639-.002ZM114.999 1.32a1.32 1.32 0 1 1-1.32-1.32 1.33 1.33 0 0 1 1.32 1.32ZM219.94 70.62a1.32 1.32 0 1 0 0-2.64 1.32 1.32 0 0 0 0 2.64Z" opacity=".3"/></g><path fill="#0EA5EA" d="M83.48 70.63c12.1 0 21.909-9.81 21.909-21.91s-9.81-21.91-21.91-21.91-21.91 9.81-21.91 21.91 9.81 21.91 21.91 21.91Z"/><path fill="#fff" d="M83.48 70.63c12.1 0 21.909-9.81 21.909-21.91s-9.81-21.91-21.91-21.91-21.91 9.81-21.91 21.91 9.81 21.91 21.91 21.91Z" opacity=".7"/><path fill="#0EA5EA" d="M75.93 32.19A22 22 0 0 0 67.29 34a21.92 21.92 0 0 0 24.87 34.85 21.92 21.92 0 0 0-16.23-36.66Z" opacity=".2"/><path fill="#0EA5EA" d="M73.75 38a2 2 0 1 1-4 0 2 2 0 0 1 4 0ZM97.31 36a2 2 0 1 1-4 0 2 2 0 0 1 4 0ZM93.31 50.26a3.28 3.28 0 1 1-6.558.04 3.28 3.28 0 0 1 6.558-.04ZM82.89 59.61a4.38 4.38 0 1 1-8.76 0 4.38 4.38 0 0 1 8.76 0Z" opacity=".2"/><path fill="#0EA5EA" d="M343.153 313.004c2.439-10.336-3.962-20.693-14.299-23.133-10.336-2.439-20.693 3.962-23.133 14.299-2.44 10.336 3.962 20.693 14.298 23.133 10.337 2.439 20.694-3.962 23.134-14.299Z"/><path fill="#fff" d="M343.153 313.004c2.439-10.336-3.962-20.693-14.299-23.133-10.336-2.439-20.693 3.962-23.133 14.299-2.44 10.336 3.962 20.693 14.298 23.133 10.337 2.439 20.694-3.962 23.134-14.299Z" opacity=".3"/><path fill="#0EA5EA" d="M336.58 293.7a19.228 19.228 0 0 0-24.34 22.212A19.228 19.228 0 0 0 318.9 327a19.23 19.23 0 0 0 17.68-33.32v.02Z" opacity=".4"/><path fill="#0EA5EA" d="M306.079 314.31c-20.54 9.66-5.22 17.11 23.71 6.71 26.78-9.63 37-21.77 13-18 1.29 5.1-32.26 18.17-36.71 11.29Z"/><path fill="#000" d="M336.35 120.19c-26.89 18.17-61.7 42.13-71.35 99.81h-2c9.35-57 42.89-81.57 69.79-99.81h3.56Z" opacity=".2"/><path fill="#0EA5EA" d="M197.27 300.63c-17 0-33.81-7.67-42-20.19-5.05-7.74-10.92-23.95 6.56-45.58l1.55 1.26c-12.36 15.3-14.65 30.65-6.43 43.23 10 15.31 33.59 23 53.73 17.53 20.62-5.62 33.15-23.56 34.36-49.23 4.13-87.81 50.78-114.86 84.84-134.61 21.18-12.27 36.47-21.13 33.12-39.84a7.76 7.76 0 0 0-3.16-5.48c-4.35-2.87-12.85-.88-22.69 1.41-19.31 4.5-45.75 10.66-61.5-16.13l1.72-1c15 25.53 39.58 19.8 59.32 15.2 10.29-2.39 19.18-4.46 24.25-1.13 2.15 1.41 3.46 3.64 4 6.8 3.61 20.08-13 29.72-34.05 41.92-33.67 19.52-79.77 46.25-83.86 133-1.25 26.6-14.31 45.21-35.83 51.06a52.943 52.943 0 0 1-13.93 1.78Z"/><path fill="#fff" d="M197.27 300.63c-17 0-33.81-7.67-42-20.19-5.05-7.74-10.92-23.95 6.56-45.58l1.55 1.26c-12.36 15.3-14.65 30.65-6.43 43.23 10 15.31 33.59 23 53.73 17.53 20.62-5.62 33.15-23.56 34.36-49.23 4.13-87.81 50.78-114.86 84.84-134.61 21.18-12.27 36.47-21.13 33.12-39.84a7.76 7.76 0 0 0-3.16-5.48c-4.35-2.87-12.85-.88-22.69 1.41-19.31 4.5-45.75 10.66-61.5-16.13l1.72-1c15 25.53 39.58 19.8 59.32 15.2 10.29-2.39 19.18-4.46 24.25-1.13 2.15 1.41 3.46 3.64 4 6.8 3.61 20.08-13 29.72-34.05 41.92-33.67 19.52-79.77 46.25-83.86 133-1.25 26.6-14.31 45.21-35.83 51.06a52.943 52.943 0 0 1-13.93 1.78Z" opacity=".2"/><path fill="#0EA5EA" d="M255 29.31c4.608.027 9.185.745 13.58 2.13 0 0 11 18.77 12.3 23.07-.46 4.24-7.62 11.19-7.62 11.19L255 29.31Z"/><path fill="#fff" d="M255 29.31c4.608.027 9.185.745 13.58 2.13 0 0 11 18.77 12.3 23.07-.46 4.24-7.62 11.19-7.62 11.19L255 29.31Z" opacity=".3"/><path fill="#0EA5EA" d="M287.59 120.49A141.49 141.49 0 0 1 276 104.11a83.465 83.465 0 0 1-2.39-4.42c-.43-.85-.84-1.7-1.24-2.56a10.423 10.423 0 0 1-1.21-2.69c-1.2-12.67 3.14-22-1-32.17l-16.47 6.44s1.4 18.12 4.6 29c2 6.73 6.48 12.55 10.8 17.94 1.36 1.68 2.66 3.41 4 5.1 1.34 1.69 2.72 3.06 4 4.65 1.95 2.41 2.59 4.72 1.11 7.56l-.24.45c-.42.74 1.54 1.58 2.78 0 2-2.58 1.72-2.42 3.46-4.62 1.06-1.33 2.27-2.78 3.32-4a3.386 3.386 0 0 0 .07-4.3Z"/><path fill="#fff" d="M287.59 120.49A141.49 141.49 0 0 1 276 104.11a83.465 83.465 0 0 1-2.39-4.42c-.43-.85-.84-1.7-1.24-2.56a10.423 10.423 0 0 1-1.21-2.69c-1.2-12.67 3.14-22-1-32.17l-16.47 6.44s1.4 18.12 4.6 29c2 6.73 6.48 12.55 10.8 17.94 1.36 1.68 2.66 3.41 4 5.1 1.34 1.69 2.72 3.06 4 4.65 1.95 2.41 2.59 4.72 1.11 7.56l-.24.45c-.42.74 1.54 1.58 2.78 0 2-2.58 1.72-2.42 3.46-4.62 1.06-1.33 2.27-2.78 3.32-4a3.386 3.386 0 0 0 .07-4.3Z" opacity=".7"/><path fill="#0EA5EA" d="M283.56 115.28a55.09 55.09 0 0 1-8.66 7.52c.43.48.85 1 1.28 1.46a43.89 43.89 0 0 0 8.5-7.51l-1.12-1.47ZM287.581 120.5a.85.85 0 0 0-.11-.15 5.059 5.059 0 0 0-1.27 3.17 4.993 4.993 0 0 0 .38 2.35l.95-1.13a3.35 3.35 0 0 0 .05-4.24Z" opacity=".3"/><path fill="#0EA5EA" d="M251.091 41.31a35.402 35.402 0 0 1-6.37 7.19 23.596 23.596 0 0 1-4.42 3c-.833.425-1.695.789-2.58 1.09l-.68.22-.22.06a6.161 6.161 0 0 1-1.35.27 7.55 7.55 0 0 1-2.51-.23 12.223 12.223 0 0 1-2.96-1.29 24.892 24.892 0 0 1-2.15-1.41 40.261 40.261 0 0 1-3.58-3.05 53.753 53.753 0 0 1-6-6.73 2.511 2.511 0 0 1 3.35-3.63l.08.05c2.36 1.5 4.74 3.08 7.06 4.49 1.18.69 2.32 1.39 3.45 1.93.512.27 1.04.51 1.58.72.342.149.707.237 1.08.26 0 0 0-.07-.38-.06-.114.01-.228.026-.34.05h-.22l.33-.17c.446-.235.877-.5 1.29-.79a19.004 19.004 0 0 0 2.5-2.12 63.678 63.678 0 0 0 4.95-5.76 5 5 0 0 1 8.05 5.93l.04-.02Z"/><path fill="#fff" d="M251.091 41.31a35.402 35.402 0 0 1-6.37 7.19 23.596 23.596 0 0 1-4.42 3c-.833.425-1.695.789-2.58 1.09l-.68.22-.22.06a6.161 6.161 0 0 1-1.35.27 7.55 7.55 0 0 1-2.51-.23 12.223 12.223 0 0 1-2.96-1.29 24.892 24.892 0 0 1-2.15-1.41 40.261 40.261 0 0 1-3.58-3.05 53.753 53.753 0 0 1-6-6.73 2.511 2.511 0 0 1 3.35-3.63l.08.05c2.36 1.5 4.74 3.08 7.06 4.49 1.18.69 2.32 1.39 3.45 1.93.512.27 1.04.51 1.58.72.342.149.707.237 1.08.26 0 0 0-.07-.38-.06-.114.01-.228.026-.34.05h-.22l.33-.17c.446-.235.877-.5 1.29-.79a19.004 19.004 0 0 0 2.5-2.12 63.678 63.678 0 0 0 4.95-5.76 5 5 0 0 1 8.05 5.93l.04-.02Z" opacity=".7"/><path fill="#0EA5EA" d="m214.531 34.78 1.17 2s.9 2.62 2.69 3.1l4.86-1.57-.25-.41c-.62-.94-.56-2.77-.34-4.29.22-1.52-.57-1.57-1.15-1.19-.34.21-.57.91-.85 1.65a6.857 6.857 0 0 0-.78-.93l-1.48-1.48a1.72 1.72 0 0 0-2.34-.06l-1.2 1.07a1.7 1.7 0 0 0-.33 2.11Z"/><path fill="#fff" d="m214.531 34.78 1.17 2s.9 2.62 2.69 3.1l4.86-1.57-.25-.41c-.62-.94-.56-2.77-.34-4.29.22-1.52-.57-1.57-1.15-1.19-.34.21-.57.91-.85 1.65a6.857 6.857 0 0 0-.78-.93l-1.48-1.48a1.72 1.72 0 0 0-2.34-.06l-1.2 1.07a1.7 1.7 0 0 0-.33 2.11Z" opacity=".7"/><path fill="#0EA5EA" d="M259.92 27.58a59.703 59.703 0 0 0-15.35 6.47 4.32 4.32 0 0 0-1.93 4.53c1.93 9.42 6.36 22.08 11.05 30.13l22.12-9.15c.15-3.9-5.22-16.52-10.69-28.72-.98-2.19-2.86-3.84-5.2-3.26Z"/><path fill="#fff" d="M259.92 27.58a59.703 59.703 0 0 0-15.35 6.47 4.32 4.32 0 0 0-1.93 4.53c1.93 9.42 6.36 22.08 11.05 30.13l22.12-9.15c.15-3.9-5.22-16.52-10.69-28.72-.98-2.19-2.86-3.84-5.2-3.26Z" opacity=".8"/><path fill="#0EA5EA" d="m268.54 38.57-4.38-1.47c1 2.57 4.53 5.82 7 7.74-.8-2.01-1.69-4.11-2.62-6.27Z" opacity=".3"/><path fill="#0EA5EA" d="M258.471 17.68c-1.83-3.48-5.78-5.23-10.52-4.84-4 .34-7.54 4.42-7.12 6.62.42 2.2 3.78 3.14 4.39 3.91l-2.77 2a3.003 3.003 0 0 0-1.14 3.216c.106.391.289.756.54 1.074 1.17 1.48 2.71 3 3.6 4.12 7.66-.2 13.33-3.12 15.37-5.93-.73-3.57-.54-6.71-2.35-10.17Z"/><path fill="#fff" d="M258.471 17.68c-1.83-3.48-5.78-5.23-10.52-4.84-4 .34-7.54 4.42-7.12 6.62.42 2.2 3.78 3.14 4.39 3.91l-2.77 2a3.003 3.003 0 0 0-1.14 3.216c.106.391.289.756.54 1.074 1.17 1.48 2.71 3 3.6 4.12 7.66-.2 13.33-3.12 15.37-5.93-.73-3.57-.54-6.71-2.35-10.17Z" opacity=".8"/><path fill="#263238" d="M254.711 19.84a7.567 7.567 0 0 1-10.092 9.683 7.568 7.568 0 0 1-3.17-11.264 7.575 7.575 0 0 1 3.452-2.719 7.579 7.579 0 0 1 9.81 4.3Z"/><path fill="#0EA5EA" d="M319.64 110c-.12-3.29-.26-3-.35-5.77-.06-1.7-.07-3.59-.08-5.22a3.381 3.381 0 0 0-2.7-3.28c-1.32-.27-2.65-.52-4-.8-1.72-.37-3.43-.77-5.12-1.26-1.32-.38-2.62-.8-3.91-1.27s-2.74-1-4.09-1.62c-1.57-.67-3.13-1.39-4.67-2.13-1.73-.83-3.44-1.69-5.15-2.56-6.57-10.93-6.7-18.09-13.76-26.53l-15.16 6.86s11.14 19.76 18.72 28.14c4.37 4.83 11.22 7 17.33 8.58 4.41 1.13 8.88 2 13.35 2.83 1.74.32 3.63.44 5.13 1.48a5.739 5.739 0 0 1 2.14 3.45c.067.28.127.56.18.84.16.84 2.2.26 2.14-1.74Z"/><path fill="#fff" d="M319.64 110c-.12-3.29-.26-3-.35-5.77-.06-1.7-.07-3.59-.08-5.22a3.381 3.381 0 0 0-2.7-3.28c-1.32-.27-2.65-.52-4-.8-1.72-.37-3.43-.77-5.12-1.26-1.32-.38-2.62-.8-3.91-1.27s-2.74-1-4.09-1.62c-1.57-.67-3.13-1.39-4.67-2.13-1.73-.83-3.44-1.69-5.15-2.56-6.57-10.93-6.7-18.09-13.76-26.53l-15.16 6.86s11.14 19.76 18.72 28.14c4.37 4.83 11.22 7 17.33 8.58 4.41 1.13 8.88 2 13.35 2.83 1.74.32 3.63.44 5.13 1.48a5.739 5.739 0 0 1 2.14 3.45c.067.28.127.56.18.84.16.84 2.2.26 2.14-1.74Z" opacity=".8"/><path fill="#0EA5EA" d="M312 94.76c-.6-.13-1.2-.26-1.81-.41.05 3.46-1.57 9.42-2.16 11.23l1.9.36A38.112 38.112 0 0 0 312 94.76ZM319.211 99a3.364 3.364 0 0 0-2.7-3.28l-.95-.19a4.575 4.575 0 0 0 1.63 2.9 4.99 4.99 0 0 0 2 1.14c.02-.23.02-.41.02-.57Z" opacity=".3"/><path fill="#fff" d="M253.29 19.9c.41 1.52-1.29 3.11-2.65 1.8a30.799 30.799 0 0 0-4.11-3.7c-1.4-.87.46-2.39 2.65-1.8a5.915 5.915 0 0 1 4.11 3.7Z"/><path fill="#0EA5EA" d="M253.411 68.22c-.71.26.58 1.46.58 1.46s14-4.79 22.5-9.72a1.89 1.89 0 0 0-.68-1.58 216.08 216.08 0 0 1-22.4 9.84Z"/><path fill="#fff" d="M253.411 68.22c-.71.26.58 1.46.58 1.46s14-4.79 22.5-9.72a1.89 1.89 0 0 0-.68-1.58 216.08 216.08 0 0 1-22.4 9.84Z" opacity=".5"/><path fill="#0EA5EA" d="M263.71 26.92c2.76 1.4 5.35 2.87 8 4.5 1.29.82 2.57 1.65 3.84 2.55 1.27.9 2.53 1.82 3.8 2.86l.47.39.59.54c.353.33.687.681 1 1.05.32.35.59.69.85 1 .26.31.53.68.77 1a43.805 43.805 0 0 1 2.58 4 59.058 59.058 0 0 1 4 8.35 2.52 2.52 0 0 1-4.19 2.62l-.05-.06c-2-2.12-3.94-4.37-5.87-6.45-1.93-2.08-3.92-4.22-5.54-5.15-2.27-1.41-4.8-2.82-7.31-4.2l-7.56-4.2a5.002 5.002 0 0 1 4.68-8.84l-.06.04Z"/><path fill="#fff" d="M263.71 26.92c2.76 1.4 5.35 2.87 8 4.5 1.29.82 2.57 1.65 3.84 2.55 1.27.9 2.53 1.82 3.8 2.86l.47.39.59.54c.353.33.687.681 1 1.05.32.35.59.69.85 1 .26.31.53.68.77 1a43.805 43.805 0 0 1 2.58 4 59.058 59.058 0 0 1 4 8.35 2.52 2.52 0 0 1-4.19 2.62l-.05-.06c-2-2.12-3.94-4.37-5.87-6.45-1.93-2.08-3.92-4.22-5.54-5.15-2.27-1.41-4.8-2.82-7.31-4.2l-7.56-4.2a5.002 5.002 0 0 1 4.68-8.84l-.06.04Z" opacity=".8"/><path fill="#0EA5EA" d="m292.001 58.1-.87-2.1s-.47-2.72-2.16-3.48l-5 .79.17.44c.47 1 .12 2.83-.34 4.29s.32 1.65.95 1.36c.37-.16.71-.81 1.1-1.5.183.35.393.684.63 1l1.23 1.7a1.718 1.718 0 0 0 2.29.4l1.36-.87a1.702 1.702 0 0 0 .64-2.03Z"/><path fill="#fff" d="m292.001 58.1-.87-2.1s-.47-2.72-2.16-3.48l-5 .79.17.44c.47 1 .12 2.83-.34 4.29s.32 1.65.95 1.36c.37-.16.71-.81 1.1-1.5.183.35.393.684.63 1l1.23 1.7a1.718 1.718 0 0 0 2.29.4l1.36-.87a1.702 1.702 0 0 0 .64-2.03Z" opacity=".8"/><path fill="#0EA5EA" d="m259.48 38.42-1.21.1-7.49 18.08c.41.03.821-.004 1.22-.1 0 0 9.76-3.64 12.71-5-1.99-4.09-5.23-13.08-5.23-13.08Z" opacity=".3"/><path fill="#fff" d="M245.82 43.16c.91 4.726 2.6 9.268 5 13.44 3.66-1.26 9.76-3.64 12.71-5a137.734 137.734 0 0 1-5.22-13.11c-3.19.24-10.06 2.82-12.49 4.67Z"/><path fill="#0EA5EA" d="M253.25 47.07a2.58 2.58 0 1 1-4.944-1.477 2.58 2.58 0 0 1 4.944 1.477Z" opacity=".3"/><path fill="#0EA5EA" d="M255.161 43.63a.844.844 0 0 1-1 .57.862.862 0 0 1-.57-1.06.847.847 0 0 1 1.05-.56.83.83 0 0 1 .52 1.05ZM257.391 42.76a.837.837 0 0 1-.722.602.837.837 0 0 1-.328-.032.855.855 0 0 1-.561-.397.838.838 0 0 1-.084-.682.846.846 0 0 1 1.135-.54.84.84 0 0 1 .56 1.049Z" opacity=".6"/><path fill="#0EA5EA" d="m260.54 50.55-9.25 3.65-.56-1.82 9.25-3.65.56 1.82Z" opacity=".5"/><path fill="#000" d="M209.511 189.53a94.066 94.066 0 0 1-1.68 17.35c-1.18 5.14-3.014 8.9-5.5 11.28a12.3 12.3 0 0 1-8.81 3.57c-5.14 0-9.064-2.803-11.77-8.41a23.714 23.714 0 0 1-1.21-3.11 144.198 144.198 0 0 0-15.92 16l-5.31 6.26a38.6 38.6 0 0 0 9.77 7.19c6.226 3.22 14.4 4.833 24.52 4.84 1.78 0 3.5-.05 5.17-.15a143.446 143.446 0 0 0 15.1-29l14.85-38.72-19.21 12.9Z" opacity=".2"/><path fill="#263238" d="m75.64 242.32 17.5 17.5 49.001-46.17c-16.86-6.41-49.73 11.9-66.5 28.67ZM136.67 303.35l-17.5-17.5 46.17-49c6.41 16.86-11.9 49.73-28.67 66.5Z"/><path fill="#0EA5EA" d="m203.65 193.06 19.09-36.81-36.81 19.09a144.305 144.305 0 0 0-32.44 23l-62.75 59.08 30.83 30.83 59.07-62.75a144.315 144.315 0 0 0 23.01-32.44Z"/><path fill="#fff" d="m203.65 193.06 19.09-36.81-36.81 19.09a144.305 144.305 0 0 0-32.44 23l-62.75 59.08 30.83 30.83 59.07-62.75a144.315 144.315 0 0 0 23.01-32.44Z" opacity=".6"/><path fill="#fff" d="M164.45 227.44c7.124 0 12.9-5.776 12.9-12.9 0-7.124-5.776-12.9-12.9-12.9-7.125 0-12.9 5.776-12.9 12.9 0 7.124 5.775 12.9 12.9 12.9Z"/><path fill="#0EA5EA" d="M164.45 222.83a8.29 8.29 0 1 0 0-16.58 8.29 8.29 0 0 0 0 16.58Z"/><path fill="#0EA5EA" d="M131.991 277.18 101.811 247l24.71-23.27 28.74 28.74-23.27 24.71Z" opacity=".3"/><path fill="#0EA5EA" d="M82.47 270c-22.61 1.84-30.1 16.3-32.65 35.54-1.3 9.8-1.88 19.73-10.11 25.47a2.76 2.76 0 0 0 1.63 5.06c30.34-.95 44.49-15.8 46.27-22a42.995 42.995 0 0 1-2.5 9.47 2.759 2.759 0 0 0 4 3.39c8.52-5.33 19.2-15.15 19.91-31.08C102.75 287 82.47 270 82.47 270Z"/><path fill="#fff" d="M82.47 270c-22.61 1.84-30.1 16.3-32.65 35.54-1.3 9.8-1.88 19.73-10.11 25.47a2.76 2.76 0 0 0 1.63 5.06c30.34-.95 44.49-15.8 46.27-22a42.995 42.995 0 0 1-2.5 9.47 2.759 2.759 0 0 0 4 3.39c8.52-5.33 19.2-15.15 19.91-31.08C102.75 287 82.47 270 82.47 270Z" opacity=".2"/><path fill="#0EA5EA" d="m112.52 302.66-36.19-36.2 19.28-4.17 21.09 21.09-4.18 19.28Z"/></g><defs><linearGradient id="b" x1="35.279" x2="147.37" y1="242.47" y2="229.267" gradientUnits="userSpaceOnUse"><stop stop-color="#0EA5EA"/><stop offset="1" stop-color="#0BD1D1"/></linearGradient><linearGradient id="c" x1="150.355" x2="255.447" y1="244.55" y2="233.165" gradientUnits="userSpaceOnUse"><stop stop-color="#0EA5EA"/><stop offset="1" stop-color="#0BD1D1"/></linearGradient><linearGradient id="d" x1="259.352" x2="371.485" y1="242.47" y2="229.257" gradientUnits="userSpaceOnUse"><stop stop-color="#0EA5EA"/><stop offset="1" stop-color="#0BD1D1"/></linearGradient><clipPath id="a"><path fill="#fff" d="M0 0h384.19v359.88H0z"/></clipPath></defs></svg>